<svg width="24" height="24" viewBox="0 0 24 24" fill="none" xmlns="http://www.w3.org/2000/svg">
<path fill-rule="evenodd" clip-rule="evenodd" d="M14.8971 2.71793C15.0274 2.51596 15.2967 2.45782 15.4987 2.58807C15.7006 2.71832 15.7588 2.98763 15.6285 3.1896L15.0737 4.04994C17.1994 5.28838 17.2898 7.72441 17.2898 7.72441H6.99106C6.99106 7.72441 7.05711 5.19728 9.28392 3.98236L8.77267 3.1896C8.64242 2.98763 8.70056 2.71832 8.90253 2.58807C9.1045 2.45782 9.37382 2.51596 9.50407 2.71793L10.0958 3.63553C10.6662 3.45102 11.3413 3.34241 12.1402 3.3449C12.9818 3.34748 13.686 3.47389 14.2752 3.68226L14.8971 2.71793ZM10.4516 5.24052C10.5839 5.55629 10.4352 5.91957 10.1194 6.05192C9.80365 6.18428 9.44037 6.03558 9.30802 5.7198C9.17567 5.40403 9.32436 5.04075 9.64014 4.90839C9.95592 4.77604 10.3192 4.92474 10.4516 5.24052ZM15.0042 5.62198C15.0823 5.28862 14.8754 4.95505 14.542 4.87692C14.2087 4.7988 13.8751 5.0057 13.797 5.33906C13.7188 5.67242 13.9258 6.00599 14.2591 6.08412C14.5925 6.16225 14.926 5.95534 15.0042 5.62198ZM6.07113 14.8309C6.2783 14.6238 6.39474 14.3429 6.39484 14.05V9.08691C6.39433 8.79424 6.27772 8.51374 6.07059 8.30698C5.86347 8.10021 5.58276 7.98408 5.2901 7.98408C4.9975 7.98418 4.7169 8.10036 4.50986 8.30711C4.30282 8.51387 4.18625 8.79431 4.18575 9.08691V14.05C4.18575 14.3429 4.3021 14.6238 4.5092 14.8309C4.71631 15.038 4.99721 15.1543 5.2901 15.1543C5.58303 15.1543 5.86397 15.038 6.07113 14.8309ZM20.012 14.4727C20.0675 14.3387 20.0961 14.1951 20.0961 14.05V9.08691C20.0955 8.79424 19.9789 8.51374 19.7718 8.30698C19.5647 8.10021 19.284 7.98408 18.9913 7.98408C18.6987 7.98418 18.4181 8.10036 18.2111 8.30711C18.004 8.51387 17.8875 8.79431 17.887 9.08691V14.05C17.887 14.3429 18.0033 14.6238 18.2104 14.8309C18.4175 15.038 18.6984 15.1543 18.9913 15.1543C19.1364 15.1544 19.28 15.1259 19.414 15.0704C19.5481 15.0149 19.6699 14.9336 19.7725 14.831C19.875 14.7285 19.9564 14.6067 20.012 14.4727ZM17.3337 8.33601H6.9484V12.6106H6.95836V17.0943C6.95836 17.2589 7.02376 17.4168 7.14016 17.5332C7.25657 17.6496 7.41445 17.715 7.57908 17.715H8.90442V20.4747C8.90442 20.7676 9.02077 21.0485 9.22788 21.2556C9.43499 21.4627 9.71588 21.579 10.0088 21.579C10.3017 21.579 10.5826 21.4627 10.7898 21.2556C10.997 21.0485 11.1134 20.7676 11.1135 20.4747V17.715H13.1676V20.4747C13.1676 20.7676 13.284 21.0485 13.4911 21.2556C13.6982 21.4627 13.9791 21.579 14.272 21.579C14.5649 21.579 14.8459 21.4627 15.053 21.2556C15.2602 21.0485 15.3766 20.7676 15.3767 20.4747V17.715H16.703C16.8677 17.715 17.0255 17.6496 17.1419 17.5332C17.2584 17.4168 17.3237 17.2589 17.3237 17.0943V12.6106H17.3337V8.33601Z" fill="#525C69"/>
</svg>
