<svg width="24" height="24" viewBox="0 0 24 24" fill="none" xmlns="http://www.w3.org/2000/svg">
<path d="M18.5232 15.4132C18.2787 15.9781 17.9893 16.4982 17.654 16.9763C17.197 17.6281 16.8228 18.0792 16.5344 18.3298C16.0874 18.741 15.6084 18.9516 15.0954 18.9636C14.7272 18.9636 14.2832 18.8588 13.7663 18.6462C13.2477 18.4346 12.7711 18.3298 12.3353 18.3298C11.8783 18.3298 11.3881 18.4346 10.8638 18.6462C10.3387 18.8588 9.91571 18.9696 9.59229 18.9805C9.10043 19.0015 8.61017 18.7849 8.12081 18.3298C7.80847 18.0573 7.4178 17.5901 6.94979 16.9284C6.44765 16.2217 6.03482 15.4022 5.71141 14.4679C5.36504 13.4588 5.19141 12.4816 5.19141 11.5356C5.19141 10.4519 5.42551 9.51725 5.89442 8.73401C6.26294 8.10488 6.7532 7.6086 7.3668 7.24428C7.9804 6.87996 8.6434 6.6943 9.35739 6.68242C9.74806 6.68242 10.2604 6.8033 10.897 7.04086C11.5319 7.27921 11.9395 7.40009 12.1182 7.40009C12.2519 7.40009 12.7047 7.25875 13.4724 6.97698C14.1983 6.71566 14.8111 6.60746 15.313 6.65008C16.6731 6.75988 17.6949 7.29618 18.3745 8.26238C17.1581 8.99961 16.5564 10.0322 16.5683 11.3568C16.5793 12.3886 16.9535 13.2472 17.689 13.9289C18.0223 14.2454 18.3945 14.4899 18.8086 14.6636C18.7188 14.9241 18.624 15.1736 18.5232 15.4132ZM15.4038 3.13502C15.4038 3.94373 15.1084 4.69881 14.5197 5.39771C13.8092 6.22857 12.9498 6.70867 12.0179 6.63292C12.006 6.5359 11.9991 6.43379 11.9991 6.32649C11.9991 5.55013 12.337 4.71927 12.937 4.03994C13.2366 3.69598 13.6176 3.40998 14.0796 3.18183C14.5406 2.95709 14.9767 2.8328 15.3868 2.81152C15.3988 2.91963 15.4038 3.02776 15.4038 3.13502Z" fill="#525C69"/>
</svg>
