<svg width="24" height="24" viewBox="0 0 24 24" fill="none" xmlns="http://www.w3.org/2000/svg">
<path d="M12.2629 3.83792C12.1525 3.83792 12.0393 3.84362 11.9225 3.85192C8.92972 4.08373 9.72373 7.17658 9.67911 8.20805C9.62388 8.96155 9.46667 9.55844 8.93557 10.2964C8.30727 11.0229 7.54566 11.601 7.12821 12.8238C6.93224 13.3989 6.8377 13.9912 6.92639 14.5476C6.89299 14.5718 6.86558 14.603 6.8462 14.6389C6.6635 14.8256 6.52753 15.0553 6.37829 15.2197C6.23755 15.3571 6.03573 15.4038 5.81373 15.4956C5.59279 15.5895 5.34636 15.6818 5.20243 15.968C5.13869 16.0982 5.10523 16.2382 5.10842 16.3844C5.10842 16.5193 5.12807 16.6598 5.14719 16.7542C5.18915 17.0296 5.23004 17.2567 5.17481 17.4242C4.99795 17.8935 4.97883 18.2151 5.10045 18.4505C5.2242 18.6828 5.47913 18.7746 5.7638 18.8669C6.33952 19.0043 7.11653 18.9608 7.73102 19.2797C8.38587 19.6038 9.05294 19.7444 9.58404 19.6069C9.76724 19.5668 9.93899 19.4874 10.0868 19.3744C10.2346 19.2613 10.3548 19.1176 10.4386 18.9535C10.8534 18.9509 11.3096 18.7668 12.0377 18.7212C12.5327 18.6802 13.1525 18.9074 13.8632 18.8586C13.8823 18.9535 13.9072 18.996 13.946 19.091V19.0935C14.2222 19.6308 14.7342 19.874 15.2823 19.8336C15.8267 19.7905 16.4077 19.4638 16.8777 18.9292C17.326 18.4023 18.07 18.1803 18.5624 17.892C18.8088 17.7535 19.008 17.5679 19.0218 17.3003C19.0382 17.0249 18.881 16.7386 18.5183 16.3497V16.2818L18.5156 16.2792C18.394 16.1418 18.3388 15.9094 18.275 15.6398C18.214 15.3613 18.1476 15.0968 17.9266 14.9158C17.882 14.878 17.8379 14.8697 17.7912 14.824C17.752 14.797 17.7058 14.7812 17.6579 14.7784C17.9622 13.8947 17.8433 13.0173 17.5331 12.2254C17.1571 11.2504 16.2892 10.1336 15.995 9.81655C15.7008 9.49947 14.7597 9.0606 14.7708 8.08566C14.7899 6.5968 14.9392 3.84518 12.2619 3.83947L12.2629 3.83792ZM12.6363 6.19282H12.6475C12.7967 6.19282 12.9263 6.23638 13.0596 6.32817C13.195 6.42203 13.2949 6.5579 13.3692 6.69792C13.4441 6.87632 13.4834 7.01374 13.4882 7.19732C13.4882 7.18436 13.4909 7.17035 13.4909 7.15739V7.22999C13.4909 7.22429 13.4882 7.21962 13.4882 7.21392L13.4855 7.19732C13.4855 7.36534 13.45 7.53285 13.3809 7.68635C13.3481 7.77374 13.2961 7.85304 13.2285 7.91867C13.2094 7.9083 13.1897 7.89741 13.1674 7.88911C13.0931 7.85644 13.0267 7.84607 12.9656 7.79784C12.9153 7.77818 12.8635 7.76274 12.8105 7.75169C12.844 7.71176 12.913 7.6599 12.9406 7.61426C12.9767 7.52766 12.9959 7.43328 13.0017 7.3363V7.3223C13.0032 7.22868 12.9881 7.13552 12.9571 7.04693C12.9268 6.95514 12.8886 6.90847 12.8302 6.8172C12.7691 6.77104 12.7112 6.72541 12.639 6.72541H12.6283C12.562 6.72541 12.5035 6.74408 12.443 6.8172C12.3765 6.88116 12.3271 6.96004 12.2991 7.04693C12.2605 7.13406 12.2389 7.22744 12.2353 7.3223V7.3363C12.2353 7.39801 12.2412 7.46024 12.2486 7.52247C12.1105 7.47684 11.939 7.42757 11.8173 7.38194C11.8107 7.3364 11.807 7.2905 11.8062 7.24451V7.23051C11.8008 7.04788 11.8369 6.86636 11.9119 6.69896C11.9698 6.54753 12.0749 6.41737 12.2162 6.33128C12.3373 6.2426 12.4839 6.19386 12.6363 6.19386V6.19282ZM10.5395 6.23379H10.5645C10.6643 6.23379 10.7557 6.26646 10.847 6.32558C10.9516 6.41477 11.0356 6.52523 11.0908 6.64658C11.1545 6.78504 11.1901 6.92506 11.2013 7.10864V7.11124C11.2039 7.20302 11.2039 7.25229 11.1986 7.29533V7.35186L11.1407 7.36794C11.0329 7.40579 10.9474 7.45973 10.8608 7.5064C10.8693 7.44417 10.8693 7.38194 10.8635 7.3223V7.31141C10.8555 7.22014 10.8359 7.17398 10.8056 7.08168C10.7829 7.01069 10.742 6.94659 10.6866 6.8955C10.6518 6.86522 10.6062 6.84957 10.5597 6.85194H10.5427C10.4933 6.85453 10.4513 6.87891 10.4131 6.94373C10.3663 6.99632 10.3365 7.06129 10.3276 7.13042C10.3079 7.20303 10.3021 7.28133 10.3106 7.36016V7.36794C10.3191 7.46284 10.3356 7.50899 10.3685 7.60026C10.3899 7.67061 10.43 7.73415 10.4848 7.78436C10.4933 7.79266 10.4991 7.79836 10.5098 7.80044C10.4604 7.8414 10.4269 7.8497 10.386 7.89534C10.3579 7.91453 10.3281 7.9389 10.292 7.9446C10.2184 7.85809 10.1534 7.76483 10.0982 7.66612C10.0304 7.52075 9.99284 7.3637 9.98769 7.20406C9.97696 7.04804 9.99568 6.89142 10.0429 6.742C10.0849 6.60717 10.1513 6.48012 10.2447 6.37225C10.3361 6.28046 10.4274 6.23482 10.5406 6.23482L10.5395 6.23379ZM11.5104 7.41409C11.7456 7.41409 12.0282 7.45713 12.3708 7.68946C12.5784 7.82792 12.742 7.87615 13.118 8.01098C13.3007 8.10588 13.4053 8.19767 13.4579 8.28946V8.19767C13.4831 8.24777 13.4972 8.30252 13.4991 8.3583C13.501 8.41409 13.4908 8.46964 13.4691 8.52127C13.3804 8.73752 13.1037 8.96726 12.7144 9.10468V9.10727C12.5258 9.19906 12.3601 9.33701 12.1663 9.4288C11.9703 9.52059 11.7483 9.63157 11.4498 9.6129C11.3417 9.61753 11.2337 9.60186 11.1317 9.56674C11.053 9.52596 10.9772 9.48005 10.9049 9.42932C10.7668 9.33753 10.6478 9.19958 10.471 9.10779V9.1052H10.4683C10.1831 8.9351 10.0312 8.75101 9.98131 8.61358C9.93457 8.42741 9.97866 8.28998 10.1199 8.19819C10.2771 8.1064 10.3876 8.0115 10.4598 7.96587C10.5342 7.91453 10.5623 7.89534 10.5846 7.87667H10.5873V7.87408C10.7063 7.73354 10.8938 7.54996 11.1821 7.45765C11.2783 7.43328 11.3893 7.41409 11.5104 7.41409ZM13.4909 8.89362C13.7458 9.87426 14.267 10.9363 14.6488 11.625C14.8507 11.9948 15.4459 12.5371 15.6201 13.4804C15.7305 13.4778 15.8521 13.4933 15.9828 13.526C16.4417 12.3701 15.5983 11.1275 15.2138 10.7816C15.056 10.6442 15.0481 10.5519 15.1251 10.5519C15.543 10.9191 16.0901 11.6383 16.2892 12.4562C16.3806 12.8259 16.4034 13.2211 16.3062 13.6121C16.353 13.6308 16.4002 13.6551 16.4502 13.6577C17.1804 14.0285 17.4513 14.3065 17.3212 14.7219V14.6923C17.2803 14.6902 17.2357 14.6923 17.1942 14.6923H17.1831C17.2914 14.3687 17.0535 14.1198 16.4284 13.8444C15.781 13.569 15.2637 13.6121 15.175 14.1659C15.1687 14.1972 15.1652 14.229 15.1644 14.2608C15.1139 14.2769 15.0645 14.2956 15.0151 14.3039C14.7108 14.4906 14.5472 14.7685 14.4537 15.1253C14.3624 15.4951 14.3348 15.9245 14.3098 16.4192C14.2928 16.6515 14.1882 16.9995 14.0825 17.3532C13.0203 18.0958 11.5459 18.4173 10.2963 17.5855C10.2155 17.4507 10.1215 17.3262 10.0111 17.2157C9.95801 17.1299 9.89194 17.0525 9.81507 16.986C9.94466 16.986 10.0557 16.9647 10.1444 16.9399C10.2457 16.8922 10.3253 16.8096 10.368 16.708C10.4428 16.5239 10.368 16.2268 10.1215 15.9027C9.87881 15.5817 9.46348 15.2166 8.85749 14.8525C8.40977 14.5772 8.15803 14.2505 8.04171 13.888C7.9254 13.5182 7.94187 13.1371 8.03056 12.7512C8.20476 12.0112 8.65036 11.2904 8.93557 10.8387C9.00992 10.7956 8.96053 10.9336 8.64505 11.5144C8.36516 12.033 7.95998 13.388 8.77966 14.3039C8.80738 13.6195 8.85086 12.9442 9.12685 12.3146C9.52465 11.4314 10.1337 10.3643 10.2001 9.14358C10.2336 9.17054 10.3526 9.23848 10.4046 9.28411C10.557 9.3759 10.6728 9.51385 10.8226 9.60564C10.9718 9.74306 11.1598 9.83796 11.4424 9.83796C11.47 9.84056 11.495 9.84056 11.5194 9.84056C11.8099 9.84056 12.0372 9.74877 12.2247 9.65646C12.4292 9.56156 12.5959 9.42413 12.75 9.3785H12.7526C13.0819 9.28671 13.3448 9.10001 13.4914 8.89465L13.4909 8.89362ZM12.4515 8.84798C12.144 8.98541 11.7818 9.21773 11.3972 9.21773C11.0127 9.21773 10.711 9.03467 10.4928 8.89621C10.3823 8.80235 10.2936 8.71004 10.2272 8.66388C10.1109 8.57261 10.1247 8.43208 10.1746 8.43208C10.2516 8.44245 10.266 8.52594 10.3154 8.57261C10.385 8.61825 10.4678 8.71004 10.5698 8.80235C10.7774 8.93977 11.0541 9.12594 11.3967 9.12594C11.7403 9.12594 12.144 8.93977 12.3872 8.80235C12.5253 8.71056 12.7022 8.57261 12.8461 8.48082C12.9566 8.38592 12.9518 8.29413 13.0421 8.29413C13.1334 8.30502 13.0676 8.38592 12.9401 8.52387C12.81 8.61877 12.6113 8.75619 12.4515 8.84798ZM11.6851 7.75169V7.73872C11.6824 7.72472 11.6931 7.70917 11.7069 7.70346C11.7563 7.6739 11.8338 7.68427 11.8896 7.70605C11.9337 7.70605 12.0027 7.75169 11.9974 7.79992C11.9915 7.83259 11.9363 7.84607 11.9002 7.84607C11.862 7.84607 11.8338 7.81651 11.8009 7.79784C11.7648 7.78695 11.6957 7.79214 11.6851 7.75169ZM11.2947 7.75169C11.2804 7.79266 11.214 7.78695 11.1784 7.79784C11.145 7.81651 11.1173 7.84607 11.0786 7.84607C11.0425 7.84607 10.9846 7.83207 10.9814 7.79784C10.9766 7.75169 11.0425 7.70605 11.0871 7.70605C11.145 7.68375 11.2167 7.67338 11.2719 7.70346C11.2831 7.70917 11.2974 7.72472 11.2915 7.73872V7.75169H11.2947Z" fill="#525C69"/>
</svg>
