<svg width="14" height="14" viewBox="0 0 14 14" fill="none" xmlns="http://www.w3.org/2000/svg">
<g id="icon zone">
<path id="icon shape fx" fill-rule="evenodd" clip-rule="evenodd" d="M6.99993 10.2967C6.79053 10.2967 6.62077 10.127 6.62077 9.91758V7.37962H4.08327C3.87386 7.37962 3.7041 7.20986 3.7041 7.00046C3.7041 6.79105 3.87386 6.62129 4.08327 6.62129H6.62077V4.08424C6.62077 3.87484 6.79053 3.70508 6.99993 3.70508C7.20934 3.70508 7.3791 3.87484 7.3791 4.08424V6.62129H9.9166C10.126 6.62129 10.2958 6.79105 10.2958 7.00046C10.2958 7.20986 10.126 7.37962 9.9166 7.37962H7.3791V9.91758C7.3791 10.127 7.20934 10.2967 6.99993 10.2967Z" fill="white" fill-opacity="0.8"/>
</g>
</svg>
