<svg width="14" height="14" viewBox="0 0 14 14" fill="none" xmlns="http://www.w3.org/2000/svg">
<g id="icon zone">
<path id="icon shape fx" fill-rule="evenodd" clip-rule="evenodd" d="M6.50497 2.14855C6.84307 2.11512 7.17549 2.11635 7.49898 2.14928C7.80664 2.1806 8.043 2.40274 8.12428 2.67851L8.23767 3.06319C8.2533 3.11623 8.29931 3.16824 8.37217 3.19451C8.49118 3.23743 8.6076 3.28577 8.72112 3.33923C8.79115 3.3722 8.86047 3.36799 8.90905 3.34152L9.2607 3.14998C9.51318 3.01245 9.83731 3.02254 10.077 3.21777C10.3357 3.42848 10.5723 3.66518 10.783 3.92392C10.9781 4.1636 10.9882 4.48766 10.8507 4.74009L10.6591 5.09187C10.6326 5.14044 10.6284 5.20975 10.6613 5.27977C10.7147 5.39319 10.763 5.50951 10.8059 5.62843C10.8321 5.7013 10.8842 5.74731 10.9372 5.76294L11.3216 5.87624C11.5974 5.95753 11.8195 6.19393 11.8508 6.50162C11.8837 6.82524 11.8849 7.1578 11.8514 7.49605C11.8209 7.8046 11.5987 8.04303 11.3212 8.12484L10.945 8.23571C10.8915 8.25149 10.839 8.29827 10.8129 8.3724C10.7698 8.495 10.7209 8.61485 10.6666 8.7316C10.6339 8.80177 10.6382 8.87089 10.6646 8.91927L10.8596 9.27722C10.9968 9.52921 10.9872 9.85293 10.7923 10.0926C10.5836 10.3493 10.3489 10.5839 10.0923 10.7926C9.8526 10.9875 9.5289 10.9971 9.27692 10.8598L8.91792 10.6643C8.86959 10.6379 8.80054 10.6336 8.73041 10.6662C8.61412 10.7202 8.49477 10.7688 8.37268 10.8117C8.2985 10.8377 8.25168 10.8902 8.23589 10.9438L8.12465 11.3212C8.04284 11.5988 7.80439 11.8209 7.49582 11.8515C7.15751 11.8849 6.82488 11.8837 6.50121 11.8508C6.19354 11.8195 5.95717 11.5973 5.87589 11.3216L5.76174 10.9343C5.74612 10.8813 5.70016 10.8293 5.62738 10.803C5.50978 10.7605 5.39473 10.7127 5.28251 10.6599C5.2125 10.627 5.14322 10.6312 5.09465 10.6577L4.74018 10.8507C4.48775 10.9882 4.1637 10.9782 3.92402 10.7831C3.66522 10.5724 3.42845 10.3356 3.21769 10.0769C3.02247 9.8372 3.01239 9.51308 3.14991 9.2606L3.34292 8.90626C3.36938 8.85769 3.3736 8.78839 3.34065 8.71838C3.2878 8.60606 3.23995 8.49091 3.19741 8.37321C3.1711 8.30044 3.11913 8.2545 3.06614 8.23888L2.67855 8.12464C2.4028 8.04336 2.18067 7.80704 2.14933 7.49941C2.11636 7.17586 2.1151 6.84338 2.14851 6.50522C2.17901 6.19659 2.40116 5.95809 2.67876 5.87627L3.06479 5.76249C3.11684 5.74715 3.17005 5.70142 3.19933 5.62621C3.24206 5.51648 3.29072 5.40805 3.34465 5.30144C3.38089 5.22982 3.37738 5.15797 3.35016 5.108L3.17574 4.78778C3.03518 4.52974 3.05015 4.19983 3.25133 3.95993C3.46561 3.70442 3.70409 3.46592 3.95958 3.25162C4.19949 3.0504 4.52942 3.03542 4.78748 3.17599L5.10676 3.3499C5.15677 3.37714 5.2287 3.38062 5.30034 3.3443C5.40739 3.29003 5.51628 3.24107 5.6265 3.1981C5.70163 3.1688 5.74732 3.11562 5.76265 3.0636L5.87607 2.67878C5.95789 2.4012 6.19637 2.17906 6.50497 2.14855ZM8.71646 7.38808C8.98778 6.11254 7.88325 5.00837 6.60804 5.27979C6.32547 5.33993 6.02244 5.51833 5.76991 5.77088C5.51738 6.02342 5.339 6.32645 5.27887 6.60902C5.00756 7.88421 6.11165 8.98863 7.38713 8.71737C8.05177 8.57602 8.57506 8.05275 8.71646 7.38808Z" fill="white"/>
</g>
</svg>
