<svg width="20" height="20" viewBox="0 0 20 20" fill="none" xmlns="http://www.w3.org/2000/svg">
<path fill-rule="evenodd" clip-rule="evenodd" d="M8.35285 4.54205C9.0959 3.29328 10.9041 3.29328 11.6471 4.54205L16.4421 12.6004C17.2684 13.9891 16.2677 15.7491 14.6517 15.7491H5.34825C3.73229 15.7491 2.73157 13.9891 3.55789 12.6004L8.35285 4.54205ZM10.6445 5.13862C10.3537 4.64997 9.64621 4.64997 9.35545 5.13862L4.56049 13.197C4.19691 13.808 4.63723 14.5824 5.34825 14.5824H14.6517C15.3627 14.5824 15.803 13.808 15.4395 13.197L10.6445 5.13862ZM10.0006 6.73047C9.6784 6.73047 9.41724 6.99164 9.41724 7.3138V11.0185C9.41724 11.3407 9.6784 11.6019 10.0006 11.6019C10.3227 11.6019 10.5839 11.3407 10.5839 11.0185V7.3138C10.5839 6.99164 10.3227 6.73047 10.0006 6.73047ZM10.0005 12.1781C9.60929 12.1781 9.29216 12.4952 9.29216 12.8864V12.9445C9.29216 13.3357 9.60929 13.6529 10.0005 13.6529C10.3917 13.6529 10.7088 13.3357 10.7088 12.9445V12.8864C10.7088 12.4952 10.3917 12.1781 10.0005 12.1781Z" fill="white"/>
</svg>
