<svg width="24" height="24" viewBox="0 0 24 24" fill="none" xmlns="http://www.w3.org/2000/svg">
<path fill-rule="evenodd" clip-rule="evenodd" d="M10.0234 5.45104C10.9151 3.95252 13.0849 3.95252 13.9765 5.45104L19.7305 15.1211C20.7221 16.7875 19.5212 18.8994 17.582 18.8994H6.4179C4.47875 18.8994 3.27788 16.7875 4.26947 15.1211L10.0234 5.45104ZM12.0004 7.92748C11.5309 7.92748 11.1504 8.30804 11.1504 8.77748V12.8924C11.1504 13.3619 11.5309 13.7424 12.0004 13.7424C12.4698 13.7424 12.8504 13.3619 12.8504 12.8924V8.77748C12.8504 8.30804 12.4698 7.92748 12.0004 7.92748ZM11.0504 15.464C11.0504 14.9393 11.4757 14.514 12.0004 14.514C12.525 14.514 12.9504 14.9393 12.9504 15.464V15.5338C12.9504 16.0584 12.525 16.4838 12.0004 16.4838C11.4757 16.4838 11.0504 16.0584 11.0504 15.5338V15.464Z" fill="white"/>
</svg>
