<svg width="26" height="26" viewBox="0 0 26 26" fill="none" xmlns="http://www.w3.org/2000/svg">
<g id="icon zone">
<path id="icon shape fx" fill-rule="evenodd" clip-rule="evenodd" d="M13.0001 4.22656C12.4023 4.22656 11.8788 4.36356 11.2798 4.71476C11.0885 4.82688 10.3094 5.25199 9.41642 5.73919L9.4164 5.7392L8.84745 6.0497C7.7692 6.6384 6.64012 7.25668 6.40016 7.41024C5.95092 7.69773 5.47358 8.04588 5.14118 8.65283C4.84325 9.19687 4.70365 9.68874 4.70361 10.3918C4.7036 10.5097 4.70204 10.7967 4.69996 11.1799C4.69253 12.5489 4.67842 15.1455 4.70467 15.6404C4.74048 16.3153 4.84017 16.8112 5.14517 17.3541C5.47407 17.9395 5.97964 18.2792 6.42198 18.5741C6.68039 18.7464 7.78994 19.3806 8.84567 19.9738C9.89955 20.5659 11.0067 21.1774 11.2612 21.2948C11.6977 21.4963 12.3594 21.7732 13.0001 21.7732C13.3565 21.7732 13.6578 21.6848 13.9048 21.5931C14.0123 21.5532 14.1195 21.5087 14.2136 21.4696L14.2136 21.4696L14.2465 21.4559C14.3534 21.4116 14.4493 21.3725 14.5478 21.3373C14.6604 21.2971 14.8189 21.2192 14.966 21.1445C15.13 21.0612 15.3338 20.9535 15.5616 20.831C16.0178 20.5854 16.5838 20.2727 17.1463 19.959C17.8605 19.5608 18.5596 19.1664 19.0384 18.8963L19.0386 18.8961C19.3228 18.7358 19.5293 18.6193 19.6153 18.5717C20.199 18.2491 20.5585 17.866 20.8501 17.3629C21.1495 16.8462 21.2967 16.3137 21.2967 15.6002V10.4256C21.2967 9.62473 21.1472 9.14426 20.8483 8.63387C20.5417 8.11026 20.0338 7.65773 19.5252 7.38219C19.4028 7.31589 18.933 7.05087 18.3267 6.70886C17.9649 6.50481 17.5546 6.27331 17.1402 6.04014C16.0604 5.43252 14.9158 4.792 14.6507 4.66659C14.1557 4.43245 13.6281 4.22656 13.0001 4.22656ZM12.0468 6.02316C12.4253 5.80128 12.6855 5.74323 13.0001 5.74323C13.2846 5.74323 13.5639 5.83031 14.0022 6.03762C14.2037 6.13293 15.2754 6.73113 16.3964 7.36191C16.7914 7.58415 17.188 7.8079 17.5434 8.00838L17.5457 8.00969C18.0865 8.3147 18.5313 8.56563 18.7286 8.67497L16.7037 9.89134L11.1389 6.52659C11.5806 6.2848 11.9196 6.09774 12.0468 6.02316ZM17.4515 11.2114L19.7272 9.84435C19.7619 9.99234 19.78 10.1736 19.78 10.4256V15.6002C19.78 16.0667 19.6937 16.3335 19.5378 16.6024C19.3741 16.8849 19.2077 17.0641 18.8815 17.2444C18.7981 17.2905 18.5869 17.4096 18.2976 17.5728L18.2972 17.573C17.8105 17.8476 17.1024 18.247 16.4077 18.6344C15.8471 18.947 15.289 19.2553 14.8429 19.4954C14.6195 19.6156 14.4275 19.7169 14.279 19.7923C14.2046 19.8301 14.1444 19.8598 14.0984 19.8814C14.0625 19.8983 14.0434 19.9066 14.0377 19.909C13.9378 19.9447 13.8438 19.9818 13.7582 20.0167V13.43L15.9455 12.1161L15.9455 14.9167C15.9455 15.1634 16.2097 15.3202 16.4263 15.2019L17.1695 14.796C17.3434 14.7011 17.4516 14.5187 17.4516 14.3206L17.4515 11.2114ZM6.27781 9.84721L12.2416 13.4297V20.0664C12.1312 20.0227 12.0158 19.9727 11.8968 19.9178C11.713 19.8329 10.6796 19.2645 9.58861 18.6515C8.49949 18.0395 7.45997 17.4433 7.26328 17.3122C6.79543 17.0003 6.59502 16.8383 6.46744 16.6112C6.31598 16.3416 6.24779 16.0987 6.21921 15.56C6.19569 15.1166 6.20872 12.6871 6.21619 11.2952V11.2952L6.21619 11.2951C6.21849 10.8657 6.22027 10.535 6.22028 10.3919C6.22029 10.1726 6.23815 10.0025 6.27781 9.84721ZM13.0001 12.1161L7.25478 8.6648C7.51365 8.50874 8.51368 7.95992 9.57424 7.38088L9.59859 7.3676L15.2333 10.7746L13.0001 12.1161Z" fill="white"/>
</g>
</svg>
