<svg width="26" height="26" viewBox="0 0 26 26" fill="none" xmlns="http://www.w3.org/2000/svg">
<g id="icon zone">
<path id="icon shape fx" fill-rule="evenodd" clip-rule="evenodd" d="M10.5251 5.26061C10.5251 4.24349 11.3496 3.41895 12.3667 3.41895H13.6323C14.6495 3.41895 15.474 4.24349 15.474 5.26061V19.1112C15.474 20.1283 14.6495 20.9529 13.6323 20.9529H12.3667C11.3496 20.9529 10.5251 20.1283 10.5251 19.1112V5.26061ZM12.3667 4.93561C12.1872 4.93561 12.0417 5.08112 12.0417 5.26061V19.1112C12.0417 19.2907 12.1872 19.4362 12.3667 19.4362H13.6323C13.8118 19.4362 13.9573 19.2907 13.9573 19.1112V5.26061C13.9573 5.08112 13.8118 4.93561 13.6323 4.93561H12.3667ZM4.23242 13.2692C4.23242 12.2521 5.05696 11.4276 6.07409 11.4276H7.33969C8.35682 11.4276 9.18136 12.2521 9.18136 13.2692V19.1112C9.18136 20.1283 8.35681 20.9529 7.33969 20.9529H6.07409C5.05696 20.9529 4.23242 20.1283 4.23242 19.1112V13.2692ZM6.07409 12.9442C5.8946 12.9442 5.74909 13.0897 5.74909 13.2692V19.1112C5.74909 19.2907 5.8946 19.4362 6.07409 19.4362H7.33969C7.51918 19.4362 7.66469 19.2907 7.66469 19.1112V13.2692C7.66469 13.0897 7.51918 12.9442 7.33969 12.9442H6.07409ZM16.8172 10.9809C16.8172 9.96379 17.6417 9.13924 18.6588 9.13924H19.9244C20.9416 9.13924 21.7661 9.96378 21.7661 10.9809V19.111C21.7661 20.1282 20.9416 20.9527 19.9244 20.9527H18.6588C17.6417 20.9527 16.8172 20.1282 16.8172 19.111V10.9809ZM18.6588 10.6559C18.4794 10.6559 18.3338 10.8014 18.3338 10.9809V19.111C18.3338 19.2905 18.4794 19.436 18.6588 19.436H19.9244C20.1039 19.436 20.2494 19.2905 20.2494 19.111V10.9809C20.2494 10.8014 20.1039 10.6559 19.9244 10.6559H18.6588Z" fill="white"/>
</g>
</svg>
