<svg width="26" height="26" viewBox="0 0 26 26" fill="none" xmlns="http://www.w3.org/2000/svg">
<g id="icon zone">
<path id="icon shape fx" fill-rule="evenodd" clip-rule="evenodd" d="M10.2393 4.8959C10.2393 4.35742 9.80274 3.9209 9.26427 3.9209C8.72579 3.9209 8.28927 4.35742 8.28927 4.8959V5.32373H7.25111C5.57584 5.32373 4.21777 6.6818 4.21777 8.35706V17.6566C4.21777 19.3319 5.57584 20.6899 7.25111 20.6899H18.7522C20.4275 20.6899 21.7855 19.3319 21.7855 17.6566V8.35706C21.7855 6.6818 20.4275 5.32373 18.7522 5.32373H17.6925V4.8959C17.6925 4.35742 17.256 3.9209 16.7175 3.9209C16.179 3.9209 15.7425 4.35742 15.7425 4.8959V5.32373H10.2393V4.8959ZM15.7425 7.52806V6.8404H10.2393V7.52806C10.2393 8.06654 9.80274 8.50306 9.26427 8.50306C8.72579 8.50306 8.28927 8.06654 8.28927 7.52806V6.8404H7.25111C6.41348 6.8404 5.73444 7.51943 5.73444 8.35706V17.6566C5.73444 18.4942 6.41348 19.1733 7.25111 19.1733H18.7522C19.5898 19.1733 20.2689 18.4942 20.2689 17.6566V8.35706C20.2689 7.51943 19.5898 6.8404 18.7522 6.8404H17.6925V7.52806C17.6925 8.06654 17.256 8.50306 16.7175 8.50306C16.179 8.50306 15.7425 8.06654 15.7425 7.52806ZM7.7714 10.9649C7.7714 10.4862 8.15942 10.0982 8.63807 10.0982H9.51352C9.99216 10.0982 10.3802 10.4862 10.3802 10.9649V11.8815C10.3802 12.3602 9.99216 12.7482 9.51352 12.7482H8.63807C8.15942 12.7482 7.7714 12.3602 7.7714 11.8815V10.9649ZM12.6249 10.0982C12.1463 10.0982 11.7583 10.4862 11.7583 10.9649V11.8815C11.7583 12.3602 12.1463 12.7482 12.6249 12.7482H13.5004C13.979 12.7482 14.367 12.3602 14.367 11.8815V10.9649C14.367 10.4862 13.979 10.0982 13.5004 10.0982H12.6249ZM15.5679 10.9649C15.5679 10.4862 15.9559 10.0982 16.4346 10.0982H17.31C17.7887 10.0982 18.1767 10.4862 18.1767 10.9649V11.8815C18.1767 12.3602 17.7887 12.7482 17.31 12.7482H16.4346C15.9559 12.7482 15.5679 12.3602 15.5679 11.8815V10.9649ZM7.7714 15.1078C7.7714 14.6291 8.15942 14.2411 8.63807 14.2411H9.51352C9.99216 14.2411 10.3802 14.6291 10.3802 15.1078V16.0244C10.3802 16.5031 9.99216 16.8911 9.51352 16.8911H8.63807C8.15942 16.8911 7.7714 16.5031 7.7714 16.0244V15.1078Z" fill="black"/>
</g>
</svg>
