<svg width="26" height="26" viewBox="0 0 26 26" fill="none" xmlns="http://www.w3.org/2000/svg">
<g id="icon zone">
<path id="icon shape fx" fill-rule="evenodd" clip-rule="evenodd" d="M7.22634 16.8466V14.6851L6.47084 14.2467C5.94988 13.9444 5.60505 13.3843 5.60505 12.7455V8.51953C5.60505 7.56224 6.38109 6.7862 7.33838 6.7862H14.598C15.5553 6.7862 16.3313 7.56224 16.3313 8.51953V9.38704H12.7691C11.0939 9.38704 9.73579 10.7451 9.73579 12.4204V16.4119C9.73579 18.0872 11.0939 19.4453 12.7691 19.4453H16.4726L17.9027 20.8754C18.8523 21.8249 20.4758 21.1525 20.4758 19.8096V18.991C21.3376 18.456 21.9115 17.501 21.9115 16.4119V12.4204C21.9115 10.7451 20.5535 9.38704 18.8782 9.38704H17.848V8.51953C17.848 6.72461 16.3929 5.26953 14.598 5.26953H7.33838C5.54345 5.26953 4.08838 6.72461 4.08838 8.51953V12.7455C4.08838 13.9469 4.74029 14.9961 5.70968 15.5585V16.8693C5.70968 18.2121 7.33321 18.8846 8.28272 17.9351L8.79415 17.4237C8.61468 17.1081 8.51217 16.743 8.51217 16.3541V15.5608L7.22634 16.8466ZM18.9591 18.1473V19.7869L17.1008 17.9286H12.7691C11.9315 17.9286 11.2525 17.2496 11.2525 16.4119V12.4204C11.2525 11.5827 11.9315 10.9037 12.7691 10.9037H18.8782C19.7158 10.9037 20.3949 11.5827 20.3949 12.4204V16.4119C20.3949 16.9548 20.1108 17.4324 19.6759 17.7024L18.9591 18.1473Z" fill="white"/>
</g>
</svg>
