<svg width="26" height="26" viewBox="0 0 26 26" fill="none" xmlns="http://www.w3.org/2000/svg">
<g id="icon zone">
<path id="icon shape fx" fill-rule="evenodd" clip-rule="evenodd" d="M15.1667 4.22118C13.8259 3.44711 12.1741 3.44711 10.8334 4.22118L6.48014 6.73451C5.13941 7.50858 4.31348 8.93913 4.31348 10.4873V15.5139C4.31348 17.0621 5.13941 18.4926 6.48014 19.2667L10.8334 21.78C12.1741 22.5541 13.8259 22.5541 15.1667 21.78L19.5199 19.2667C20.8606 18.4926 21.6866 17.0621 21.6866 15.5139V10.4873C21.6866 8.93913 20.8606 7.50858 19.5199 6.73451L15.1667 4.22118ZM18.7616 8.04798L14.4084 5.53465C13.5369 5.0315 12.4632 5.0315 11.5917 5.53465L7.23848 8.04798C6.367 8.55113 5.83014 9.48099 5.83014 10.4873V15.5139C5.83014 16.5202 6.367 17.4501 7.23848 17.9532L11.5917 20.4666C12.4632 20.9697 13.5369 20.9697 14.4084 20.4666L18.7616 17.9532C19.633 17.4501 20.1699 16.5202 20.1699 15.5139V10.4873C20.1699 9.48099 19.633 8.55113 18.7616 8.04798ZM14.0819 7.60563C13.4129 7.21935 12.5886 7.21935 11.9195 7.60563L8.87002 9.36626C8.20097 9.75254 7.78882 10.4664 7.78882 11.239V14.7602C7.78882 15.5328 8.20097 16.2467 8.87003 16.6329L11.9195 18.3936C12.5886 18.7799 13.4129 18.7799 14.082 18.3936L17.1315 16.6329C17.8005 16.2467 18.2127 15.5328 18.2127 14.7602V11.239C18.2127 10.4664 17.8005 9.75254 17.1315 9.36626L14.0819 7.60563ZM16.3731 10.6797L13.3236 8.9191C13.1238 8.80375 12.8777 8.80375 12.6779 8.9191L9.62836 10.6797C9.42856 10.7951 9.30549 11.0083 9.30549 11.239V14.7602C9.30549 14.9909 9.42856 15.2041 9.62836 15.3195L12.6779 17.0801C12.8777 17.1955 13.1238 17.1955 13.3236 17.0801L16.3731 15.3195C16.5729 15.2041 16.696 14.9909 16.696 14.7602V11.239C16.696 11.0083 16.5729 10.7951 16.3731 10.6797Z" fill="black"/>
</g>
</svg>
