<svg width="26" height="26" viewBox="0 0 26 26" fill="none" xmlns="http://www.w3.org/2000/svg">
<g id="icon zone">
<path id="icon shape fx" fill-rule="evenodd" clip-rule="evenodd" d="M4.30596 8.63631C3.65465 7.15638 4.73856 5.49512 6.35547 5.49512H20.3812C21.9981 5.49512 23.082 7.15638 22.4307 8.63631L22.4081 8.68769C22.0504 9.50034 21.2464 10.0249 20.3585 10.0249H6.37808C5.49022 10.0249 4.68622 9.50034 4.32858 8.68769L4.30596 8.63631ZM6.35547 7.01178C5.83373 7.01178 5.48398 7.54784 5.69414 8.02538L5.71675 8.07676C5.83216 8.33898 6.09159 8.50825 6.37808 8.50825H20.3585C20.645 8.50825 20.9045 8.33898 21.0199 8.07676L21.0425 8.02538C21.2526 7.54784 20.9029 7.01178 20.3812 7.01178H6.35547ZM6.51276 14.4848C5.88622 13.0081 6.97001 11.3709 8.5741 11.3709H18.1633C19.7674 11.3709 20.8512 13.0081 20.2246 14.4848L20.2028 14.5361C19.8518 15.3634 19.0402 15.9007 18.1415 15.9007H8.5959C7.69721 15.9007 6.88559 15.3634 6.53456 14.5361L6.51276 14.4848ZM8.5741 12.8876C8.05649 12.8876 7.70678 13.4159 7.90895 13.8924L7.93075 13.9437C8.04402 14.2107 8.30591 14.3841 8.5959 14.3841H18.1415C18.4315 14.3841 18.6934 14.2107 18.8066 13.9437L18.8284 13.8924C19.0306 13.4159 18.6809 12.8876 18.1633 12.8876H8.5741ZM9.38964 20.315C8.68239 18.8291 9.76586 17.1134 11.4115 17.1134H15.3266C16.9723 17.1134 18.0558 18.8291 17.3485 20.315L17.3241 20.3664C16.9528 21.1464 16.166 21.6432 15.3022 21.6432H11.436C10.5721 21.6432 9.78534 21.1464 9.4141 20.3664L9.38964 20.315ZM11.4115 18.6301C10.8805 18.6301 10.5309 19.1837 10.7591 19.6632L10.7836 19.7146C10.9033 19.9662 11.1572 20.1266 11.436 20.1266H15.3022C15.5809 20.1266 15.8348 19.9662 15.9546 19.7146L15.9791 19.6632C16.2073 19.1837 15.8577 18.6301 15.3266 18.6301H11.4115Z" fill="black"/>
</g>
</svg>
