<svg width="24" height="24" viewBox="0 0 24 24" fill="none" xmlns="http://www.w3.org/2000/svg">
<path fill-rule="evenodd" clip-rule="evenodd" d="M14.4461 3.86678C14.8163 3.97817 15.0261 4.36858 14.9147 4.73879L10.424 19.6636C10.3126 20.0338 9.92223 20.2436 9.55202 20.1322C9.18182 20.0208 8.97201 19.6304 9.0834 19.2602L13.574 4.33541C13.6854 3.96521 14.0758 3.75539 14.4461 3.86678Z" fill="white"/>
<path fill-rule="evenodd" clip-rule="evenodd" d="M8.00274 7.023C8.31202 7.25496 8.3747 7.69372 8.14274 8.003L5.14531 11.9996L8.14274 15.9961C8.3747 16.3054 8.31202 16.7442 8.00274 16.9761C7.69346 17.2081 7.2547 17.1454 7.02274 16.8361L3.71031 12.4196C3.52365 12.1707 3.52365 11.8285 3.71031 11.5796L7.02274 7.163C7.2547 6.85372 7.69346 6.79104 8.00274 7.023Z" fill="white"/>
<path fill-rule="evenodd" clip-rule="evenodd" d="M15.9958 7.023C16.3051 6.79104 16.7439 6.85372 16.9758 7.163L20.2882 11.5796C20.4749 11.8285 20.4749 12.1707 20.2882 12.4196L16.9758 16.8361C16.7439 17.1454 16.3051 17.2081 15.9958 16.9761C15.6865 16.7442 15.6239 16.3054 15.8558 15.9961L18.8533 11.9996L15.8558 8.003C15.6239 7.69372 15.6865 7.25496 15.9958 7.023Z" fill="white"/>
</svg>
