<svg width="26" height="26" viewBox="0 0 26 26" fill="none" xmlns="http://www.w3.org/2000/svg">
<g id="icon zone">
<path id="icon shape fx" fill-rule="evenodd" clip-rule="evenodd" d="M20.364 8.1033C19.8649 7.12253 18.8576 6.50488 17.7571 6.50488H8.22903C7.12184 6.50488 6.10955 7.13004 5.61373 8.12L3.78 11.7812C3.4457 12.2668 3.25 12.8553 3.25 13.4894V16.4887C3.25 18.1545 4.60038 19.5049 6.26617 19.5049H19.7338C21.3996 19.5049 22.75 18.1545 22.75 16.4887V13.4894C22.75 12.9 22.581 12.3501 22.2887 11.8855L20.364 8.1033ZM17.7571 8.02155H8.22903C7.69594 8.02155 7.20854 8.32255 6.96981 8.7992L6.14864 10.4387H19.8507L19.0123 8.79116C18.772 8.31894 18.287 8.02155 17.7571 8.02155ZM6.26617 11.9899H19.7338C20.562 11.9899 21.2333 12.6612 21.2333 13.4894V16.4887C21.2333 17.3169 20.562 17.9882 19.7338 17.9882H6.26617C5.43802 17.9882 4.76667 17.3169 4.76667 16.4887V13.4894C4.76667 12.6612 5.43802 11.9899 6.26617 11.9899ZM9.26014 14.9742C9.26014 15.8071 8.58495 16.4823 7.75206 16.4823C6.91917 16.4823 6.24398 15.8071 6.24398 14.9742C6.24398 14.1413 6.91917 13.4661 7.75206 13.4661C8.58495 13.4661 9.26014 14.1413 9.26014 14.9742ZM10.3901 14.9735C10.3901 14.5547 10.7296 14.2152 11.1484 14.2152L17.3234 14.2152C17.7422 14.2152 18.0817 14.5547 18.0817 14.9735C18.0817 15.3923 17.7422 15.7318 17.3234 15.7318H11.1484C10.7296 15.7318 10.3901 15.3923 10.3901 14.9735Z" fill="black"/>
</g>
</svg>
