<svg width="24" height="24" viewBox="0 0 24 24" fill="none" xmlns="http://www.w3.org/2000/svg">
<path fill-rule="evenodd" clip-rule="evenodd" d="M6.21094 17.9279C6.67253 18.7544 7.55592 19.3133 8.56985 19.3133H18.1035C19.7603 19.3133 21.1035 17.9702 21.1035 16.3133V10.3854C21.1035 9.35982 20.5316 8.4678 19.6895 8.01074V10.1939C19.6987 10.2564 19.7035 10.3204 19.7035 10.3854V16.3133C19.7035 17.197 18.9871 17.9133 18.1035 17.9133H17.8383C17.7567 17.923 17.6736 17.9279 17.5895 17.9279H6.21094Z" fill="white"/>
<rect x="3.49609" y="5.63184" width="14.7637" height="10.9072" rx="2" stroke="white" stroke-width="1.4"/>
<path d="M11.2109 9.00879H15.506" stroke="white" stroke-width="1.4" stroke-linecap="round" stroke-linejoin="round"/>
<path d="M11.2109 11.6309H14.0598" stroke="white" stroke-width="1.4" stroke-linecap="round" stroke-linejoin="round"/>
<path d="M7.17864 11.9958C5.70595 11.9958 5.35991 9.82367 6.4026 9.05611C6.57574 8.92866 6.90853 8.80859 7.17865 8.80859C9.09935 8.80859 8.94671 11.9958 7.17864 11.9958Z" stroke="white" stroke-width="1.4" stroke-linecap="round" stroke-linejoin="round"/>
<path d="M10.083 16.3577C10.3592 16.3577 10.5881 16.1317 10.549 15.8583C10.2948 14.0811 8.66122 13.6182 7.18213 13.6182C6.00833 13.6182 4.73725 13.9097 4.13549 14.9183" stroke="white" stroke-width="1.4" stroke-linecap="round" stroke-linejoin="round"/>
</svg>
