<svg width="26" height="26" viewBox="0 0 26 26" fill="none" xmlns="http://www.w3.org/2000/svg">
<g id="icon zone">
<path id="icon shape fx" fill-rule="evenodd" clip-rule="evenodd" d="M11.0067 6.04798C8.26636 8.00467 9.17582 13.542 13.0463 13.542C17.6931 13.542 18.0943 5.41699 13.0463 5.41699C12.3364 5.41699 11.4618 5.72307 11.0067 6.04798ZM12.3952 7.05451C12.1311 7.13944 11.9523 7.23645 11.8881 7.2823C11.1478 7.81087 10.7528 8.98359 11.0267 10.194C11.286 11.34 12.0132 12.0253 13.0463 12.0253C13.7144 12.0253 14.188 11.7532 14.5343 11.3223C14.9078 10.8577 15.1475 10.1769 15.1656 9.44206C15.1838 8.70627 14.9775 8.05633 14.6377 7.62467C14.332 7.23633 13.8538 6.93366 13.0463 6.93366C12.8896 6.93366 12.6538 6.97135 12.3952 7.05451ZM8.48954 7.29272C7.99673 7.33442 7.44232 7.54387 7.13852 7.76478C5.09347 9.25187 5.77218 13.4602 8.66059 13.4602C8.78585 13.4602 8.90698 13.4522 9.02394 13.4366C8.95351 13.1777 8.78792 12.5654 8.6262 11.9431C8.1186 11.9288 7.69798 11.5968 7.53006 10.8412C7.34516 10.0091 7.63231 9.28106 8.03053 8.99149C8.03476 8.98878 8.05801 8.97393 8.10393 8.95178C8.12421 8.942 8.14656 8.93194 8.17066 8.92185C8.20277 8.37119 8.30682 7.81916 8.48954 7.29272ZM5.44455 14.6377C6.19183 14.1683 7.0624 13.951 7.89806 13.8742C7.89579 13.9138 7.89481 13.9586 7.89444 14.0091C7.89315 14.1889 7.85314 14.3674 7.74728 14.5128C7.57238 14.7529 7.31862 15.0285 7.03157 15.3403C6.92964 15.451 6.8235 15.5663 6.71522 15.6862C6.55052 15.7533 6.39516 15.8316 6.25126 15.922C5.73012 16.2493 5.30792 16.7649 5.15413 17.6315H5.28413C5.04025 18.098 4.85573 18.6033 4.77867 19.1482H4.73965C4.10937 19.1482 3.54066 18.6242 3.59155 17.9272C3.70676 16.3495 4.42097 15.2806 5.44455 14.6377ZM17.3266 13.46C20.6908 13.46 21.0731 7.64824 17.6532 7.30119C17.83 7.83521 17.9257 8.39377 17.9487 8.94768C18.056 9.01166 18.1373 9.09169 18.2036 9.17742C18.3964 9.4268 18.5356 9.83722 18.5235 10.3357C18.5114 10.8331 18.3513 11.2736 18.1288 11.5556C17.9465 11.7865 17.7212 11.9243 17.3971 11.9415C17.3358 12.1482 17.2754 12.3465 17.2197 12.5295L17.2192 12.5309C17.0985 12.9275 16.9996 13.2523 16.9597 13.4363C17.0778 13.4519 17.2001 13.46 17.3266 13.46ZM18.1006 14.0077C18.0985 13.9573 18.0953 13.9127 18.0907 13.8731C18.9297 13.9491 19.8047 14.1662 20.5553 14.6376C21.5789 15.2806 22.2931 16.3494 22.4083 17.9272C22.4592 18.6242 21.8905 19.1481 21.2602 19.1481H21.221C21.1441 18.6033 20.9598 18.0979 20.7161 17.6315H20.8458C20.692 16.7649 20.2698 16.2493 19.7486 15.922C19.6051 15.8318 19.4502 15.7537 19.286 15.6867C19.1771 15.5661 19.0704 15.4502 18.9679 15.3389C18.6809 15.0271 18.4271 14.7515 18.2522 14.5114C18.1463 14.366 18.1082 14.1873 18.1006 14.0077ZM13.0002 14.0837C11.5339 14.0837 9.90177 14.3167 8.57333 15.0786C7.19961 15.8664 6.20084 17.1951 6.03655 19.2209C5.97347 19.9988 6.60972 20.5837 7.31265 20.5837H18.6877C19.3906 20.5837 20.0268 19.9988 19.9637 19.2209C19.7995 17.1951 18.8007 15.8664 17.427 15.0786C16.0985 14.3167 14.4665 14.0837 13.0002 14.0837ZM16.6724 16.3943C17.5689 16.9084 18.2408 17.7238 18.4223 19.067H7.578C7.7595 17.7238 8.43144 16.9084 9.32787 16.3943C10.3295 15.8198 11.6579 15.6003 13.0002 15.6003C14.3424 15.6003 15.6708 15.8198 16.6724 16.3943Z" fill="black"/>
</g>
</svg>
