<svg width="26" height="26" viewBox="0 0 26 26" fill="none" xmlns="http://www.w3.org/2000/svg">
<g id="icon zone">
<path id="icon shape fx" fill-rule="evenodd" clip-rule="evenodd" d="M6.50016 6.5C5.30355 6.5 4.3335 7.47005 4.3335 8.66667V17.3333C4.3335 18.53 5.30355 19.5 6.50016 19.5H19.5002C20.6968 19.5 21.6668 18.53 21.6668 17.3333V8.66667C21.6668 7.47005 20.6968 6.5 19.5002 6.5H6.50016ZM6.91684 8.01667H19.1884L13.2551 12.8597C13.0941 12.9911 12.8625 12.9897 12.7031 12.8564L6.91684 8.01667ZM5.85016 17.3333V9.10173L11.7301 14.0197C12.4474 14.6197 13.4897 14.626 14.2142 14.0346L20.1502 9.18941V17.3333C20.1502 17.6923 19.8591 17.9833 19.5002 17.9833H6.50016C6.14118 17.9833 5.85016 17.6923 5.85016 17.3333Z" fill="black"/>
</g>
</svg>
