<svg width="24" height="24" viewBox="0 0 24 24" fill="none" xmlns="http://www.w3.org/2000/svg">
<path fill-rule="evenodd" clip-rule="evenodd" d="M13.2094 4.40706L19.6521 10.979C20.1483 11.4851 20.2083 12.1727 19.9444 12.7166C19.6845 13.2524 19.1248 13.6305 18.4433 13.6305H18.2493V19.0341C18.2493 19.6251 17.7703 20.1041 17.1794 20.1041H14.2201C13.6291 20.1041 13.1501 19.625 13.1501 19.0341V15.4801H10.8509V19.0341C10.8509 19.6251 10.3719 20.1041 9.78099 20.1041H6.82161C6.23071 20.1041 5.75169 19.6251 5.75169 19.0341V13.6305H5.55781C4.87633 13.6305 4.31662 13.2524 4.05669 12.7166C3.79284 12.1727 3.85281 11.4851 4.34898 10.979L10.7917 4.40706C11.4451 3.74061 12.556 3.74061 13.2094 4.40706ZM12.2097 5.38714C12.1052 5.28059 11.8959 5.28059 11.7914 5.38714L5.3487 11.9591C5.31144 11.9971 5.3049 12.0239 5.30304 12.0366C5.30064 12.053 5.30234 12.0768 5.3163 12.1055C5.34251 12.1596 5.4135 12.2305 5.55781 12.2305H6.45169C6.83829 12.2305 7.15169 12.5439 7.15169 12.9305V18.7041H9.45091V14.7801C9.45091 14.3935 9.76431 14.0801 10.1509 14.0801H13.8501C14.2367 14.0801 14.5501 14.3935 14.5501 14.7801V18.7041H16.8493V12.9305C16.8493 12.5439 17.1627 12.2305 17.5493 12.2305H18.4433C18.5876 12.2305 18.6586 12.1596 18.6848 12.1055C18.6988 12.0768 18.7005 12.053 18.6981 12.0366C18.6962 12.0239 18.6897 11.9971 18.6524 11.9591L12.2097 5.38714Z" fill="white"/>
</svg>
