<svg width="26" height="26" viewBox="0 0 26 26" fill="none" xmlns="http://www.w3.org/2000/svg">
<g id="icon zone">
<path id="icon shape fx" fill-rule="evenodd" clip-rule="evenodd" d="M4.99341 18.6608C4.99341 20.3266 6.34379 21.6769 8.00957 21.6769H16.304C16.3236 21.6769 16.3432 21.6768 16.3627 21.6764H18.8893C20.5551 21.6764 21.9055 20.326 21.9055 18.6602L21.9055 10.0352C21.9055 9.83417 21.8858 9.63773 21.8483 9.44771C21.8291 9.35058 21.8053 9.25511 21.777 9.16158C21.7706 9.14042 21.764 9.11937 21.7572 9.09841C21.65 8.77011 21.488 8.46659 21.2821 8.19865C20.7982 8.21212 20.6016 8.53813 20.522 8.78288C20.4921 8.8749 20.4788 8.95544 20.473 9.00355C20.4691 9.03515 20.4686 9.06657 20.4686 9.09841L20.4686 18.3218C20.4686 18.4368 20.4601 18.5498 20.4435 18.6602C20.3144 19.5206 19.7008 20.2224 18.8893 20.479C18.8162 20.5022 18.7416 20.5216 18.6655 20.5373C19.0753 20.0223 19.3202 19.3701 19.3202 18.6608V7.35015C19.3202 5.68437 17.9698 4.33398 16.304 4.33398H8.00957C6.34379 4.33398 4.99341 5.68437 4.99341 7.35015V18.6608ZM6.51007 7.35015L6.51008 18.6608C6.51008 19.4889 7.18142 20.1603 8.00957 20.1603H16.304C17.1322 20.1603 17.8035 19.4889 17.8035 18.6608V7.35015C17.8035 6.522 17.1322 5.85065 16.304 5.85065L8.00957 5.85065C7.18142 5.85065 6.51007 6.522 6.51007 7.35015ZM11.0258 8.85826C11.0258 9.69115 10.3506 10.3663 9.51769 10.3663C8.68479 10.3663 8.0096 9.69115 8.0096 8.85826C8.0096 8.02537 8.68479 7.35018 9.51769 7.35018C10.3506 7.35018 11.0258 8.02537 11.0258 8.85826ZM12.1557 8.85754C12.1557 8.43872 12.4952 8.0992 12.914 8.0992L14.7971 8.0992C15.2159 8.0992 15.5554 8.43872 15.5554 8.85754C15.5554 9.27635 15.2159 9.61587 14.7971 9.61587L12.914 9.61587C12.4952 9.61587 12.1557 9.27635 12.1557 8.85754ZM8.76476 11.8697C8.34595 11.8697 8.00643 12.2092 8.00643 12.628C8.00643 13.0469 8.34595 13.3864 8.76476 13.3864H14.7971C15.2159 13.3864 15.5554 13.0469 15.5554 12.628C15.5554 12.2092 15.2159 11.8697 14.7971 11.8697H8.76476ZM8.76476 14.8859C8.34595 14.8859 8.00643 15.2254 8.00643 15.6442C8.00643 16.0631 8.34595 16.4026 8.76476 16.4026H13.289C13.7078 16.4026 14.0473 16.0631 14.0473 15.6442C14.0473 15.2254 13.7078 14.8859 13.289 14.8859H8.76476Z" fill="white"/>
</g>
</svg>
