<svg width="24" height="24" viewBox="0 0 24 24" fill="none" xmlns="http://www.w3.org/2000/svg">
<g opacity="0.5">
<path d="M16.0221 19.3651L15.5271 19.8601L16.0221 19.3651ZM11.412 8.40364L10.917 8.89861L11.412 8.40364ZM8.65929 4.69594L8.83137 5.37446L8.65929 4.69594ZM8.47477 5.4664L7.9798 5.96137L8.47477 5.4664ZM16.0004 12.3335L15.3296 12.1333L16.0004 12.3335ZM12.8811 16.2242L12.3862 16.7192L12.8811 16.2242ZM3.92258 8.42316C3.26254 10.6902 3.85979 13.2658 5.67724 15.0832L6.66719 14.0933C5.21359 12.6397 4.74855 10.5945 5.26677 8.81452L3.92258 8.42316ZM5.67724 15.0832C7.5543 16.9603 10.2403 17.536 12.5601 16.7686L12.1204 15.4394C10.3011 16.0413 8.1687 15.5948 6.66719 14.0933L5.67724 15.0832ZM12.3862 16.7192L15.5271 19.8601L16.517 18.8702L13.3761 15.7292L12.3862 16.7192ZM15.5271 19.8601C16.5815 20.9145 18.2911 20.9145 19.3455 19.8601L18.3555 18.8702C17.8478 19.3778 17.0247 19.3778 16.517 18.8702L15.5271 19.8601ZM19.3455 19.8601L19.8217 19.3838L18.8318 18.3939L18.3555 18.8702L19.3455 19.8601ZM19.8217 19.3838C20.8762 18.3294 20.8762 16.6199 19.8217 15.5655L18.8318 16.5554C19.3395 17.0631 19.3395 17.8862 18.8318 18.3939L19.8217 19.3838ZM19.8217 15.5655L16.6206 12.3643L15.6306 13.3542L18.8318 16.5554L19.8217 15.5655ZM16.6711 12.5338C17.351 10.2565 16.7576 7.66022 14.9289 5.83151L13.939 6.82146C15.4016 8.28411 15.8633 10.3457 15.3296 12.1333L16.6711 12.5338ZM14.9289 5.83151C13.1694 4.07203 10.6997 3.45631 8.48721 4.01742L8.83137 5.37446C10.5703 4.93344 12.5319 5.41438 13.939 6.82146L14.9289 5.83151ZM7.9798 5.96137L10.917 8.89861L11.907 7.90866L8.96975 4.97143L7.9798 5.96137ZM10.917 8.89861C11.0342 9.01577 11.0342 9.20572 10.917 9.32287L11.907 10.3128C12.5709 9.64893 12.5709 8.57255 11.907 7.90866L10.917 8.89861ZM10.917 9.32287L9.28424 10.9557L10.2742 11.9456L11.907 10.3128L10.917 9.32287ZM9.28424 10.9557C9.16709 11.0728 8.97714 11.0728 8.85998 10.9557L7.87003 11.9456C8.53392 12.6095 9.6103 12.6095 10.2742 11.9456L9.28424 10.9557ZM8.85998 10.9557L5.85757 7.95326L4.86762 8.94321L7.87003 11.9456L8.85998 10.9557ZM8.48721 4.01742C7.53497 4.25892 7.40021 5.38179 7.9798 5.96137L8.96975 4.97143C9.01707 5.01874 9.04194 5.09579 9.02365 5.17553C9.01444 5.21568 8.99352 5.25973 8.95668 5.2987C8.91808 5.33954 8.87187 5.36418 8.83137 5.37446L8.48721 4.01742ZM16.6206 12.3643C16.6806 12.4243 16.683 12.494 16.6711 12.5338L15.3296 12.1333C15.207 12.5442 15.2967 13.0204 15.6306 13.3542L16.6206 12.3643ZM12.5601 16.7686C12.52 16.7818 12.448 16.781 12.3862 16.7192L13.3761 15.7292C13.0323 15.3854 12.5389 15.301 12.1204 15.4394L12.5601 16.7686ZM5.26677 8.81452C5.23895 8.91008 5.15331 8.9798 5.06741 8.99802C4.98935 9.01458 4.91431 8.9899 4.86762 8.94321L5.85757 7.95326C5.28722 7.38291 4.19108 7.50094 3.92258 8.42316L5.26677 8.81452Z" fill="#333333"/>
</g>
<path fill-rule="evenodd" clip-rule="evenodd" d="M3.92266 8.42325C4.19116 7.50104 5.2873 7.383 5.85765 7.95335L8.86006 10.9558C8.97722 11.0729 9.16716 11.0729 9.28432 10.9558L10.9171 9.32297C11.0343 9.20581 11.0343 9.01586 10.9171 8.8987L7.97988 5.96147C7.40029 5.38188 7.53505 4.25901 8.48729 4.01751C10.6997 3.4564 13.1695 4.07212 14.929 5.83161C16.7331 7.63568 17.3349 10.1868 16.698 12.4417L19.8218 15.5655C20.8762 16.62 20.8762 18.3295 19.8218 19.3839L19.3456 19.8602C18.2911 20.9146 16.5816 20.9146 15.5272 19.8602L12.466 16.799C10.1681 17.5203 7.52905 16.935 5.67731 15.0833C3.85987 13.2659 3.26262 10.6903 3.92266 8.42325ZM5.16294 9.23853C4.82778 10.9122 5.32784 12.7539 6.66726 14.0933C8.16878 15.5949 10.3012 16.0414 12.1204 15.4395C12.539 15.3011 13.0324 15.3855 13.3762 15.7293L16.5171 18.8702C17.0248 19.3779 17.8479 19.3779 18.3556 18.8702L18.8319 18.394C19.3396 17.8863 19.3396 17.0632 18.8319 16.5555L15.6307 13.3543C15.2968 13.0204 15.207 12.5442 15.3297 12.1334C15.8634 10.3458 15.4017 8.2842 13.9391 6.82155C12.6518 5.53434 10.9005 5.02219 9.28022 5.28191L11.9071 7.90875C12.571 8.57264 12.571 9.64902 11.9071 10.3129L10.2743 11.9457C9.61038 12.6096 8.534 12.6096 7.87011 11.9457L5.16294 9.23853Z" fill="white"/>
</svg>
