<svg width="22" height="22" viewBox="0 0 22 22" fill="none" xmlns="http://www.w3.org/2000/svg">
<g id="icon zone">
<path id="icon shape fx" fill-rule="evenodd" clip-rule="evenodd" d="M11.8267 3.32706C11.2914 3.26994 10.7408 3.26772 10.1807 3.32566C9.56769 3.38907 9.10479 3.83364 8.94559 4.37377L8.80887 4.83764C8.79032 4.90057 8.73053 4.98038 8.61191 5.03182C8.56894 5.05045 8.52613 5.06963 8.48351 5.08934C8.3651 5.14409 8.26286 5.13198 8.20231 5.099L7.84172 4.90259C7.33891 4.62871 6.68845 4.64879 6.21006 5.04706C5.78925 5.39738 5.39738 5.78929 5.04709 6.21012C4.6489 6.68851 4.62884 7.33892 4.9027 7.84169L5.09908 8.20221C5.13206 8.26276 5.14417 8.365 5.08941 8.4834C5.06969 8.52604 5.05051 8.56886 5.03187 8.61185C4.98044 8.73045 4.90063 8.79024 4.8377 8.80879L4.37422 8.9454C3.83405 9.10461 3.38946 9.56756 3.32609 10.1806C3.26818 10.7408 3.27045 11.2915 3.32763 11.8269C3.39289 12.4379 3.8376 12.8958 4.37334 13.0537L4.83231 13.189C4.89697 13.2081 4.97486 13.2685 5.02068 13.3833C5.04191 13.4365 5.06383 13.4894 5.08643 13.5418C5.1353 13.6553 5.12303 13.7532 5.09076 13.8125L4.86235 14.2318C4.59516 14.7223 4.6046 15.3604 4.99012 15.8386C5.33745 16.2694 5.73014 16.662 6.16096 17.0094C6.63914 17.3949 7.27719 17.4043 7.7677 17.1371L8.18725 16.9086C8.24649 16.8763 8.34436 16.8641 8.45784 16.9129C8.51022 16.9355 8.56296 16.9573 8.61605 16.9785C8.73084 17.0243 8.79132 17.1022 8.81038 17.1669L8.94571 17.626C9.10362 18.1618 9.56154 18.6065 10.1726 18.6717C10.708 18.7289 11.2587 18.7312 11.8189 18.6732C12.432 18.6099 12.8949 18.1653 13.0541 17.6251L13.1845 17.1827C13.2038 17.1175 13.2653 17.0385 13.3826 16.9929C13.4416 16.9699 13.5002 16.946 13.5583 16.9213C13.6722 16.8729 13.7698 16.8854 13.8287 16.9175L14.2582 17.1515C14.7476 17.4181 15.3848 17.4096 15.863 17.0248C16.2908 16.6805 16.6805 16.2908 17.0248 15.863C17.4097 15.3849 17.4182 14.7476 17.1516 14.2582L16.9176 13.8286C16.8855 13.7696 16.873 13.6721 16.9214 13.5582C16.946 13.5001 16.9699 13.4415 16.9929 13.3825C17.0386 13.2653 17.1175 13.2037 17.1827 13.1845L17.6256 13.0539C18.1657 12.8947 18.6103 12.4318 18.6737 11.8188C18.7316 11.2587 18.7294 10.708 18.6723 10.1728C18.6071 9.56166 18.1624 9.10368 17.6266 8.94576L17.1669 8.81028C17.1023 8.79122 17.0244 8.73074 16.9785 8.61595C16.9574 8.56289 16.9355 8.51017 16.913 8.45782C16.8641 8.34434 16.8764 8.24647 16.9086 8.18722L17.1375 7.76707C17.4047 7.27654 17.3953 6.63848 17.0097 6.1603C16.6625 5.7296 16.2699 5.33702 15.8392 4.98977C15.361 4.60422 14.723 4.59477 14.2324 4.86196L13.8125 5.0907C13.7532 5.12298 13.6554 5.13525 13.5419 5.08637C13.4894 5.06378 13.4366 5.04187 13.3834 5.02064C13.2686 4.97482 13.2082 4.89694 13.1891 4.83228L13.0537 4.37279C12.8958 3.837 12.4378 3.39227 11.8267 3.32706ZM10.3128 4.60218C10.7836 4.55347 11.2443 4.55554 11.6905 4.60315C11.7311 4.60748 11.7954 4.64281 11.8227 4.73562L11.9581 5.1951C12.1039 5.68954 12.4811 6.04223 12.9076 6.21251C12.9501 6.22948 12.9923 6.247 13.0343 6.26506C13.4566 6.44694 13.9733 6.46448 14.4264 6.21769L14.8463 5.98895C14.9312 5.9427 15.0018 5.96307 15.0337 5.98881C15.3932 6.27863 15.7208 6.60632 16.0107 6.96578C16.0364 6.99771 16.0568 7.06829 16.0105 7.1532L15.7817 7.57335C15.5349 8.02637 15.5524 8.54297 15.7342 8.96528C15.7522 9.00713 15.7697 9.04928 15.7866 9.09169C15.9569 9.51828 16.3096 9.89551 16.8041 10.0413L17.2637 10.1767C17.3565 10.2041 17.3919 10.2684 17.3962 10.3089C17.4438 10.7551 17.4459 11.2159 17.3972 11.6868C17.3927 11.7302 17.3556 11.7956 17.2627 11.823L16.8199 11.9535C16.3198 12.1009 15.9654 12.4846 15.7971 12.9165C15.7788 12.9635 15.7598 13.0102 15.7402 13.0565C15.5614 13.4773 15.5448 13.9912 15.7906 14.4424L16.0246 14.872C16.0708 14.9569 16.0503 15.027 16.0251 15.0584C15.7386 15.4143 15.4144 15.7386 15.0584 16.025C15.0271 16.0502 14.957 16.0707 14.8721 16.0245L14.4426 15.7905C13.9914 15.5448 13.4774 15.5614 13.0566 15.7401C13.0103 15.7598 12.9636 15.7788 12.9166 15.7971C12.4847 15.9654 12.1009 16.3198 11.9535 16.8199L11.8231 17.2623C11.7958 17.3552 11.7304 17.3922 11.6869 17.3967C11.216 17.4454 10.7551 17.4433 10.3088 17.3956C10.2683 17.3913 10.204 17.356 10.1767 17.2632L10.0414 16.8041C9.89561 16.3096 9.51838 15.9569 9.09178 15.7866C9.04934 15.7697 9.00718 15.7522 8.9653 15.7342C8.54299 15.5524 8.0264 15.5348 7.57337 15.7816L7.15383 16.0101C7.06892 16.0564 6.99835 16.036 6.96642 16.0103C6.60686 15.7204 6.27908 15.3926 5.9892 15.0331C5.96345 15.0011 5.94309 14.9306 5.98934 14.8457L6.21775 14.4263C6.46454 13.9733 6.44699 13.4566 6.26511 13.0342C6.24705 12.9923 6.22952 12.95 6.21255 12.9075C6.04226 12.481 5.68957 12.1038 5.19514 11.958L4.73617 11.8228C4.64337 11.7954 4.60804 11.7311 4.60371 11.6906C4.55604 11.2443 4.55394 10.7835 4.60262 10.3126C4.60711 10.2691 4.64415 10.2038 4.73705 10.1764L5.20053 10.0398C5.68721 9.89632 6.03275 9.52948 6.20927 9.1224C6.22378 9.08895 6.23876 9.0555 6.25422 9.02207C6.45276 8.59274 6.48175 8.05773 6.22607 7.58834L6.02969 7.22781C5.98314 7.14236 6.00312 7.06757 6.03345 7.03113C6.33379 6.6703 6.67034 6.33372 7.03115 6.03334C7.06759 6.00301 7.14238 5.98302 7.22784 6.02958L7.58844 6.22599C8.05783 6.48167 8.59283 6.45269 9.02214 6.25416C9.05556 6.23871 9.089 6.22373 9.12243 6.20923C9.52953 6.03272 9.89639 5.68717 10.0398 5.20047L10.1766 4.7366C10.2039 4.64371 10.2693 4.60667 10.3128 4.60218ZM14.4851 11.7723C15.0318 9.20217 12.7899 6.96094 10.2203 7.50786C9.57166 7.64591 8.96439 8.02707 8.49592 8.49557C8.02744 8.96408 7.64631 9.57138 7.50829 10.22C6.9616 12.7895 9.20266 15.0313 11.7727 14.4847C13.1302 14.196 14.1964 13.1298 14.4851 11.7723ZM10.4875 8.76308C12.1482 8.40961 13.5832 9.84416 13.2299 11.5053C13.0466 12.3671 12.3675 13.0462 11.5057 13.2294C9.84468 13.5827 8.41019 12.1478 8.76352 10.4871C8.83832 10.1356 9.06611 9.7403 9.4034 9.403C9.74068 9.0657 10.136 8.83788 10.4875 8.76308Z" fill="black" />
</g>
</svg>
