<svg width="26" height="26" viewBox="0 0 26 26" fill="none" xmlns="http://www.w3.org/2000/svg">
<g id="icon zone">
<path id="icon shape fx" fill-rule="evenodd" clip-rule="evenodd" d="M15.3797 5.05724C16.0567 4.38054 17.154 4.38068 17.8308 5.05754L19.7704 6.99726C20.4473 7.67422 20.4472 8.77177 19.7702 9.44864L10.2259 18.991C10.1311 19.0857 10.013 19.1536 9.88352 19.1879L5.91066 20.2383C5.10852 20.4503 4.37548 19.7189 4.5858 18.9163L5.62353 14.9563C5.65765 14.8261 5.7258 14.7073 5.82098 14.6122L15.3797 5.05724ZM16.7584 6.12994C16.6737 6.04533 16.5366 6.04531 16.452 6.1299L15.1871 7.39429L17.4333 9.64041L18.6979 8.37608C18.7825 8.29147 18.7825 8.15428 18.6979 8.06966L16.7584 6.12994ZM16.3607 10.7127L14.1144 8.46652L7.3964 15.1818L9.64338 17.4287L16.3607 10.7127ZM6.24126 18.5821L6.74178 16.6721L8.14778 18.078L6.24126 18.5821ZM19.9898 16.3983C20.2664 16.0839 20.7456 16.0532 21.0601 16.3298C21.6487 16.8475 22.0667 17.5141 22.2351 18.2093C22.404 18.9069 22.3272 19.6801 21.8435 20.3036C21.3585 20.9289 20.5696 21.2686 19.5897 21.3195C18.6156 21.3701 17.3923 21.1428 15.8999 20.5772C14.677 20.1138 13.8861 19.8853 13.3854 19.8026C13.2786 19.785 13.192 19.7752 13.1229 19.7705C13.1322 19.8293 13.1422 19.8825 13.1536 19.9436L13.1536 19.9439L13.1537 19.9441C13.164 19.9993 13.1755 20.061 13.1889 20.1393C13.2155 20.2939 13.2442 20.489 13.2442 20.6908C13.2442 21.064 13.0849 21.4308 12.7309 21.6568C12.435 21.8456 12.0974 21.8729 11.842 21.864C11.3191 21.8457 10.6712 21.6531 10.016 21.3972C9.62584 21.2449 9.43309 20.8051 9.58545 20.415C9.73782 20.0248 10.1776 19.8321 10.5677 19.9845C11.0435 20.1703 11.4177 20.2791 11.6813 20.3242L11.6707 20.2665C11.6524 20.1671 11.6306 20.0482 11.6165 19.9533C11.5933 19.7974 11.5705 19.5889 11.5952 19.3742C11.6211 19.1487 11.7053 18.869 11.9374 18.6359C12.1669 18.4055 12.4579 18.3044 12.7334 18.2682C13.0037 18.2326 13.3061 18.2523 13.6326 18.3062C14.2856 18.4141 15.1901 18.6863 16.4374 19.159C17.8171 19.6819 18.8208 19.8407 19.5111 19.8049C20.1956 19.7693 20.5085 19.5502 20.6451 19.374C20.7832 19.196 20.848 18.9254 20.761 18.5664C20.6735 18.2051 20.4381 17.8026 20.0584 17.4686C19.7439 17.192 19.7132 16.7128 19.9898 16.3983Z" fill="black"/>
</g>
</svg>
