<svg width="24" height="24" viewBox="0 0 24 24" fill="none" xmlns="http://www.w3.org/2000/svg">
<path fill-rule="evenodd" clip-rule="evenodd" d="M11.9998 7.7998C10.5192 7.7998 9.31885 9.00011 9.31885 10.4808C9.31885 11.9614 10.5192 13.1617 11.9998 13.1617C13.4805 13.1617 14.6808 11.9614 14.6808 10.4808C14.6808 9.00011 13.4805 7.7998 11.9998 7.7998ZM10.7188 10.4808C10.7188 9.77331 11.2924 9.1998 11.9998 9.1998C12.7073 9.1998 13.2808 9.77331 13.2808 10.4808C13.2808 11.1882 12.7073 11.7617 11.9998 11.7617C11.2924 11.7617 10.7188 11.1882 10.7188 10.4808Z" fill="white"/>
<path fill-rule="evenodd" clip-rule="evenodd" d="M6.64534 17.5369H6.19941C4.92916 17.5369 3.89941 16.5072 3.89941 15.2369V8.76192C3.89941 7.49166 4.92916 6.46191 6.19941 6.46191H6.64222C6.78922 5.05377 7.9799 3.95605 9.42695 3.95605H14.5719C16.0189 3.95605 17.2096 5.05377 17.3566 6.46191H17.7996C19.0699 6.46191 20.0996 7.49166 20.0996 8.76192V15.2369C20.0996 16.5072 19.0699 17.5369 17.7996 17.5369H17.3535C17.1935 18.9313 16.0092 20.0143 14.5719 20.0143H9.42695C7.98968 20.0143 6.80533 18.9313 6.64534 17.5369ZM6.62695 7.86191H6.19941C5.70236 7.86191 5.29941 8.26486 5.29941 8.76192V15.2369C5.29941 15.734 5.70236 16.1369 6.19941 16.1369H6.62695V7.86191ZM17.3719 16.1369V7.86191H17.7996C18.2967 7.86191 18.6996 8.26486 18.6996 8.76192V15.2369C18.6996 15.734 18.2967 16.1369 17.7996 16.1369H17.3719ZM8.02695 6.75606C8.02695 5.98286 8.65376 5.35605 9.42695 5.35605H14.5719C15.3451 5.35605 15.9719 5.98286 15.9719 6.75605V17.2143C15.9719 17.9875 15.3451 18.6143 14.5719 18.6143H9.42695C8.65376 18.6143 8.02695 17.9875 8.02695 17.2143V6.75606Z" fill="white"/>
</svg>
