<svg width="26" height="26" viewBox="0 0 26 26" fill="none" xmlns="http://www.w3.org/2000/svg">
<g id="icon zone">
<path id="icon shape fx" fill-rule="evenodd" clip-rule="evenodd" d="M8.125 4.875C6.33007 4.875 4.875 6.33007 4.875 8.125V17.875C4.875 19.6699 6.33007 21.125 8.125 21.125H17.875C19.6699 21.125 21.125 19.6699 21.125 17.875V8.125C21.125 6.33007 19.6699 4.875 17.875 4.875H8.125ZM17.875 6.39167H8.125C7.16771 6.39167 6.39167 7.16771 6.39167 8.125V17.875C6.39167 18.8323 7.16771 19.6083 8.125 19.6083H17.875C18.8323 19.6083 19.6083 18.8323 19.6083 17.875V8.125C19.6083 7.16771 18.8323 6.39167 17.875 6.39167ZM16.7685 10.2799C17.074 10.5663 17.0895 11.0462 16.803 11.3518L12.7405 15.6851C12.4594 15.9849 11.9907 16.0063 11.6835 15.7332L9.24599 13.5666C8.93296 13.2883 8.90477 12.809 9.18301 12.496C9.46126 12.183 9.94058 12.1548 10.2536 12.433L12.1392 14.109L15.6966 10.3145C15.983 10.0089 16.4629 9.99345 16.7685 10.2799Z" fill="black"/>
</g>
</svg>
