<svg width="24" height="24" viewBox="0 0 24 24" fill="none" xmlns="http://www.w3.org/2000/svg">
<g id="icon zone">
<path id="icon shape fx" fill-rule="evenodd" clip-rule="evenodd" d="M11.7684 6.38584C11.9256 6.97265 11.5773 7.57582 10.9905 7.73306C10.4037 7.8903 9.80055 7.54206 9.64332 6.95524C9.48608 6.36843 9.83432 5.76526 10.4211 5.60802C11.0079 5.45079 11.6111 5.79903 11.7684 6.38584ZM13.1206 6.02349C13.478 7.35716 12.6865 8.728 11.3529 9.08536C10.0192 9.44271 8.64838 8.65126 8.29102 7.31759C7.93367 5.98392 8.72512 4.61308 10.0588 4.25573C11.3925 3.89837 12.7633 4.68983 13.1206 6.02349ZM8.78496 16.503C8.94219 17.0898 8.59395 17.693 8.00714 17.8502C7.42033 18.0075 6.81715 17.6592 6.65992 17.0724C6.50268 16.4856 6.85092 15.8824 7.43774 15.7252C8.02455 15.568 8.62772 15.9162 8.78496 16.503ZM10.1373 16.1407C10.4946 17.4743 9.70315 18.8452 8.36948 19.2025C7.03582 19.5599 5.66498 18.7684 5.30762 17.4348C4.95027 16.1011 5.74172 14.7303 7.07539 14.3729C8.40905 14.0156 9.7799 14.807 10.1373 16.1407ZM18.6326 15.0036C19.2194 14.8463 19.5677 14.2432 19.4104 13.6563C19.2532 13.0695 18.65 12.7213 18.0632 12.8785C17.4764 13.0358 17.1282 13.6389 17.2854 14.2258C17.4426 14.8126 18.0458 15.1608 18.6326 15.0036ZM18.995 16.3559C20.3286 15.9985 21.1201 14.6277 20.7627 13.294C20.4054 11.9603 19.0345 11.1689 17.7009 11.5262C16.3672 11.8836 15.5758 13.2544 15.9331 14.5881C16.2905 15.9218 17.6613 16.7132 18.995 16.3559ZM5.3677 13.7951C4.69179 11.2726 5.48369 8.70253 7.21986 6.99181C7.238 7.18621 7.2727 7.38171 7.32493 7.57665C7.4161 7.91688 7.55438 8.2319 7.73087 8.51659C6.67651 9.85638 6.24478 11.6592 6.71999 13.4328L6.72036 13.4341C6.24398 13.5762 5.81943 13.8116 5.46144 14.1149C5.42787 14.0096 5.3966 13.903 5.3677 13.7951ZM14.0864 5.76492C14.1776 6.10515 14.2153 6.4471 14.2048 6.78189C15.7878 7.41501 17.0632 8.76047 17.5384 10.534L17.5387 10.5353C18.0223 10.4202 18.5077 10.4118 18.9694 10.4954C18.9458 10.3875 18.9196 10.2795 18.8907 10.1716C18.2147 7.6491 16.2439 5.81934 13.885 5.2059C13.9665 5.38332 14.0342 5.56998 14.0864 5.76492ZM13.5786 17.3926C14.3979 17.173 15.1259 16.7827 15.7345 16.2702C16.0569 16.6313 16.4501 16.9203 16.8859 17.1208C16.0776 17.8705 15.0799 18.4397 13.9409 18.7449C12.802 19.05 11.6533 19.056 10.5785 18.8109C10.8556 18.4193 11.0516 17.9725 11.1503 17.4985C11.9336 17.6381 12.7592 17.6121 13.5786 17.3926Z" fill="white"/>
</g>
</svg>
