<svg width="24" height="24" viewBox="0 0 24 24" fill="none" xmlns="http://www.w3.org/2000/svg">
<path d="M13.9344 4.45045C12.7385 3.79646 11.2919 3.79646 10.096 4.45045L6.26537 6.54525C5.98147 6.7005 5.72132 6.88729 5.48832 7.09991L12 11.0116L18.53 7.08895C18.3 6.88087 18.044 6.69782 17.765 6.54525L13.9344 4.45045Z" fill="white"/>
<path d="M19.5213 8.47657L12.8494 12.4845V19.8829C13.2239 19.8031 13.5895 19.6689 13.9344 19.4803L17.765 17.3855C19.0479 16.6839 19.8458 15.3382 19.8458 13.876V10.0548C19.8458 9.50261 19.732 8.96708 19.5213 8.47657Z" fill="white"/>
<path d="M11.1494 19.876V12.4838L4.50283 8.49107C4.29611 8.97762 4.18457 9.50804 4.18457 10.0548V13.876C4.18457 15.3382 4.98244 16.6839 6.26536 17.3855L10.096 19.4803C10.4311 19.6636 10.7859 19.7955 11.1494 19.876Z" fill="white"/>
</svg>
