<svg width="24" height="24" viewBox="0 0 24 24" fill="none" xmlns="http://www.w3.org/2000/svg">
<path d="M10.6712 12.3268C10.6712 12.791 10.2949 13.1673 9.83071 13.1673C9.36653 13.1673 8.99023 12.791 8.99023 12.3268C8.99023 11.8626 9.36653 11.4863 9.83071 11.4863C10.2949 11.4863 10.6712 11.8626 10.6712 12.3268Z" fill="white"/>
<path d="M14.1325 13.1673C14.5966 13.1673 14.9729 12.791 14.9729 12.3268C14.9729 11.8626 14.5966 11.4863 14.1325 11.4863C13.6683 11.4863 13.292 11.8626 13.292 12.3268C13.292 12.791 13.6683 13.1673 14.1325 13.1673Z" fill="white"/>
<path fill-rule="evenodd" clip-rule="evenodd" d="M17.7287 4.71971C17.3755 4.56267 16.9618 4.72173 16.8047 5.075L15.803 7.32833C13.4034 5.9295 10.1361 6.31615 8.35465 7.32332L7.16252 5.14966C6.97661 4.81069 6.55112 4.68661 6.21216 4.87251C5.87319 5.05841 5.74911 5.4839 5.93501 5.82287L7.19395 8.11837C5.1113 9.79745 3.96578 12.279 3.91343 15.2562C3.84775 18.991 6.24212 18.8256 9.4768 18.6022C10.331 18.5432 11.2438 18.4801 12.1854 18.4838C13.126 18.4874 14.0351 18.5647 14.8825 18.6368C18.0098 18.9027 20.2974 19.0972 20.2296 15.2562C20.1757 12.2046 18.7098 9.72521 16.9566 8.17972L18.084 5.64371C18.241 5.29045 18.082 4.87676 17.7287 4.71971ZM10.7175 14.2085C8.6614 14.2613 7.15576 14.2999 7.15576 12.9836C7.15576 11.3919 9.35707 10.0996 12.0712 10.0996C14.7853 10.0996 16.9897 11.3906 16.9897 12.9836C16.9897 14.3004 15.4853 14.2617 13.4287 14.2087C12.9976 14.1976 12.5421 14.1858 12.0712 14.1858C11.6017 14.1858 11.1476 14.1975 10.7175 14.2085Z" fill="white"/>
</svg>
