<svg width="24" height="24" viewBox="0 0 24 24" fill="none" xmlns="http://www.w3.org/2000/svg">
<path d="M10.127 4.72051C10.127 4.05777 10.6642 3.52051 11.327 3.52051H12.777C13.4397 3.52051 13.977 4.05777 13.977 4.72051V17.7297C13.977 18.3924 13.4397 18.9297 12.777 18.9297H11.327C10.6642 18.9297 10.127 18.3924 10.127 17.7297V4.72051Z" fill="white"/>
<path d="M4.25879 12.2322C4.25879 11.5695 4.79605 11.0322 5.45879 11.0322H6.90879C7.57153 11.0322 8.10879 11.5695 8.10879 12.2322V17.5736C8.10879 18.2364 7.57153 18.7736 6.90879 18.7736H5.45879C4.79605 18.7736 4.25879 18.2364 4.25879 17.5736V12.2322Z" fill="white"/>
<path d="M17.2151 8.96875C16.5524 8.96875 16.0151 9.50601 16.0151 10.1688V17.5742C16.0151 18.237 16.5524 18.7742 17.2151 18.7742H18.6651C19.3279 18.7742 19.8651 18.237 19.8651 17.5742V10.1687C19.8651 9.50601 19.3279 8.96875 18.6651 8.96875H17.2151Z" fill="white"/>
</svg>
