<svg width="24" height="24" viewBox="0 0 24 24" fill="none" xmlns="http://www.w3.org/2000/svg">
<path fill-rule="evenodd" clip-rule="evenodd" d="M6.25684 5.31934C5.15227 5.31934 4.25684 6.21477 4.25684 7.31934V15.8486H4.15312C3.76653 15.8486 3.45312 16.162 3.45312 16.5486C3.45312 16.9352 3.76653 17.2486 4.15312 17.2486L11.3433 17.2488V17.4153L9.16876 19.4597C8.8871 19.7245 8.87344 20.1675 9.13825 20.4492C9.40306 20.7309 9.84607 20.7445 10.1277 20.4797L12.0883 18.6364L13.9588 20.3954C14.2404 20.6603 14.6834 20.6467 14.9483 20.365C15.2131 20.0834 15.1995 19.6404 14.9179 19.3755L12.7433 17.3306V17.2488L19.868 17.2486C20.2546 17.2486 20.568 16.9352 20.568 16.5486C20.568 16.162 20.2546 15.8486 19.868 15.8486H19.7428V7.31934C19.7428 6.21477 18.8473 5.31934 17.7428 5.31934H6.25684ZM7.80244 8.39453C7.36061 8.39453 7.00244 8.7527 7.00244 9.19453V9.85918C7.00244 10.301 7.36061 10.6592 7.80244 10.6592H10.346C10.7878 10.6592 11.146 10.301 11.146 9.85918V9.19453C11.146 8.7527 10.7878 8.39453 10.346 8.39453H7.80244ZM7.80244 11.5312C7.36061 11.5312 7.00244 11.8894 7.00244 12.3312V13.0359C7.00244 13.4777 7.36061 13.8359 7.80244 13.8359H10.346C10.7878 13.8359 11.146 13.4777 11.146 13.0359V12.3313C11.146 11.8894 10.7878 11.5312 10.346 11.5312H7.80244ZM12.7754 11.041C12.7754 9.84476 13.7451 8.875 14.9414 8.875C16.1377 8.875 17.1074 9.84476 17.1074 11.041C17.1074 12.2373 16.1377 13.207 14.9414 13.207C13.7451 13.207 12.7754 12.2373 12.7754 11.041Z" fill="white"/>
</svg>
