<svg width="24" height="25" viewBox="0 0 24 25" fill="none" xmlns="http://www.w3.org/2000/svg">
<path d="M6.27344 5.22949C4.89273 5.22949 3.77344 6.34878 3.77344 7.72949V12.6304C3.77344 13.7204 4.47107 14.6475 5.4442 14.9896V16.801C5.4442 17.5858 6.3788 17.9945 6.95518 17.4618L7.32975 17.1156C7.29379 16.9398 7.2749 16.7579 7.2749 16.5715V10.7105C7.2749 9.10892 8.57328 7.81055 10.1749 7.81055H16.1311V7.72949C16.1311 6.34878 15.0118 5.22949 13.6311 5.22949H6.27344Z" fill="white"/>
<path d="M19.9092 11.8473C19.9092 10.5218 18.8347 9.44727 17.5092 9.44727H11.6247C10.2992 9.44727 9.22472 10.5218 9.22472 11.8473V15.8507C9.22472 17.1762 10.2992 18.2507 11.6247 18.2507H15.252L17.3692 20.2008C17.8178 20.614 18.5435 20.2958 18.5435 19.6859V18.017C19.3512 17.6307 19.9092 16.8059 19.9092 15.8507V11.8473Z" fill="white"/>
</svg>
