<svg width="24" height="24" viewBox="0 0 24 24" fill="none" xmlns="http://www.w3.org/2000/svg">
<path fill-rule="evenodd" clip-rule="evenodd" d="M6.09974 18.9996H7.49206L7.4998 18.9996H16.4998L16.5075 18.9996H17.8999C18.8941 18.9996 19.6998 18.1936 19.6998 17.1996V8.62565C19.6998 7.62158 19.0996 6.71491 18.1746 6.32335C16.6172 5.66406 14.4823 4.75984 13.2569 4.24077C12.4609 3.90363 11.5648 3.90273 10.7682 4.2386C9.53732 4.75756 7.38883 5.66358 5.82578 6.32369C4.90002 6.71466 4.2998 7.62165 4.2998 8.62566V17.1996C4.2998 18.1936 5.10556 18.9996 6.09974 18.9996ZM8.1998 13.5357V17.5996H15.7998V13.5357H8.1998ZM8.1998 12.1357H15.7998V10.4996H8.1998V12.1357Z" fill="white"/>
</svg>
