<svg width="24" height="24" viewBox="0 0 24 24" fill="none" xmlns="http://www.w3.org/2000/svg">
<path d="M14.5481 3.53211C15.1034 3.69919 15.4181 4.28481 15.251 4.84011L10.7603 19.7649C10.5933 20.3202 10.0076 20.6349 9.45233 20.4679C8.89703 20.3008 8.58231 19.7152 8.74939 19.1599L13.24 4.23505C13.4071 3.67974 13.9927 3.36503 14.5481 3.53211Z" fill="white"/>
<path d="M8.18391 6.78307C8.62574 7.11444 8.71529 7.74124 8.38391 8.18307L5.52148 11.9996L8.38391 15.8162C8.71529 16.258 8.62574 16.8848 8.18391 17.2162C7.74209 17.5476 7.11529 17.458 6.78391 17.0162L3.47148 12.5996C3.20482 12.2441 3.20482 11.7552 3.47148 11.3996L6.78391 6.98307C7.11529 6.54124 7.74209 6.4517 8.18391 6.78307Z" fill="white"/>
<path d="M17.2171 6.98307C16.8857 6.54124 16.2589 6.4517 15.8171 6.78307C15.3752 7.11444 15.2857 7.74124 15.6171 8.18307L18.4795 11.9996L15.6171 15.8162C15.2857 16.258 15.3752 16.8848 15.8171 17.2162C16.2589 17.5476 16.8857 17.458 17.2171 17.0162L20.5295 12.5996C20.7961 12.2441 20.7961 11.7552 20.5295 11.3996L17.2171 6.98307Z" fill="white"/>
</svg>
