<svg width="24" height="24" viewBox="0 0 24 24" fill="none" xmlns="http://www.w3.org/2000/svg">
<path fill-rule="evenodd" clip-rule="evenodd" d="M17.8613 4.47751L18.2767 5.86684L19.6036 6.23408C20.1949 6.39773 20.3895 7.1386 19.955 7.5717L18.0207 9.49968C17.8157 9.70407 17.5162 9.78172 17.2377 9.70271L15.9155 9.32767L13.7957 11.4475C13.8552 11.6303 13.8873 11.8255 13.8873 12.0281C13.8873 13.0641 13.0475 13.9039 12.0115 13.9039C10.9756 13.9039 10.1357 13.0641 10.1357 12.0281C10.1357 10.9922 10.9756 10.1523 12.0115 10.1523C12.254 10.1523 12.4857 10.1983 12.6984 10.2821L14.7699 8.21053L14.3742 6.88288C14.2901 6.60088 14.3677 6.29549 14.5761 6.08775L16.5301 4.14006C16.9587 3.71289 17.688 3.89777 17.8613 4.47751Z" fill="white"/>
<path d="M8.64802 6.47946C9.7617 5.80433 11.0528 5.47993 12.3533 5.54844C12.7945 5.57168 13.171 5.23285 13.1943 4.79163C13.2175 4.35042 12.8787 3.9739 12.4375 3.95066C10.8163 3.86525 9.20686 4.26964 7.81859 5.11123C6.43031 5.95282 5.32738 7.19266 4.65325 8.66952C3.97911 10.1464 3.76495 11.7919 4.03862 13.3921C4.3123 14.9924 5.06114 16.4732 6.18776 17.6421C7.31438 18.811 8.76666 19.6138 10.3557 19.9462C11.9448 20.2786 13.5971 20.1252 15.0978 19.5059C16.5984 18.8865 17.878 17.83 18.7702 16.4736C19.6623 15.1173 20.1256 13.5239 20.1 11.9006C20.093 11.4589 19.7292 11.1064 19.2874 11.1134C18.8457 11.1204 18.4932 11.4842 18.5002 11.9259C18.5208 13.2281 18.1491 14.5063 17.4334 15.5944C16.7177 16.6825 15.6912 17.53 14.4874 18.0269C13.2835 18.5237 11.958 18.6468 10.6833 18.3801C9.40856 18.1135 8.24355 17.4694 7.33977 16.5317C6.43599 15.594 5.83527 14.4061 5.61572 13.1224C5.39618 11.8387 5.56798 10.5187 6.10878 9.33393C6.64957 8.14918 7.53434 7.15458 8.64802 6.47946Z" fill="white"/>
<path d="M10.1656 8.80634C10.8177 8.43267 11.5679 8.26566 12.3169 8.32739C12.7573 8.36368 13.1437 8.03614 13.18 7.59581C13.2162 7.15547 12.8887 6.76909 12.4484 6.7328C11.3766 6.64447 10.3032 6.88343 9.37013 7.41809C8.43704 7.95275 7.68815 8.75795 7.22241 9.72729C6.75667 10.6966 6.59601 11.7845 6.76167 12.847C6.92732 13.9096 7.41149 14.8969 8.1502 15.6785C8.8889 16.46 9.84736 16.9991 10.8989 17.2243C11.9505 17.4496 13.0456 17.3505 14.0397 16.9401C15.0337 16.5297 15.8798 15.8273 16.4662 14.9259C17.0526 14.0244 17.3516 12.9662 17.3238 11.8911C17.3124 11.4495 16.9451 11.1007 16.5034 11.1121C16.0617 11.1235 15.7129 11.4908 15.7244 11.9325C15.7438 12.6838 15.5348 13.4234 15.125 14.0534C14.7152 14.6835 14.1238 15.1743 13.4291 15.4612C12.7344 15.748 11.969 15.8173 11.2341 15.6598C10.4991 15.5024 9.82927 15.1257 9.313 14.5794C8.79673 14.0332 8.45835 13.3432 8.34257 12.6006C8.22679 11.8579 8.33908 11.0977 8.66458 10.4202C8.99008 9.74275 9.51347 9.18001 10.1656 8.80634Z" fill="white"/>
</svg>
