<svg width="24" height="24" viewBox="0 0 24 24" fill="none" xmlns="http://www.w3.org/2000/svg">
<path fill-rule="evenodd" clip-rule="evenodd" d="M6.93945 18.9999C7.45014 19.616 8.2212 20.0084 9.08391 20.0084H17.4364C18.974 20.0084 20.2205 18.7619 20.2205 17.2242L20.2205 9.26266C20.2205 8.62471 20.006 8.03688 19.6451 7.56738C19.0304 7.5845 18.9179 8.14785 18.8982 8.31037C18.8947 8.33954 18.8942 8.36854 18.8942 8.39793L18.8942 16.9118C18.8942 18.0651 17.9593 18.9999 16.8061 18.9999L6.93945 18.9999Z" fill="white"/>
<path fill-rule="evenodd" clip-rule="evenodd" d="M18.9435 8.10667C18.9159 8.19162 18.9036 8.26596 18.8982 8.31037C18.8947 8.33954 18.8942 8.36854 18.8942 8.39793L18.8942 16.9118C18.8942 17.018 18.8863 17.1223 18.871 17.2242C18.7519 18.0184 18.1854 18.6663 17.4364 18.9031C17.2375 18.966 17.0258 18.9999 16.8061 18.9999L6.93945 18.9999C7.45014 19.616 8.2212 20.0084 9.08391 20.0084H17.4364C18.974 20.0084 20.2205 18.7619 20.2205 17.2242L20.2205 9.26266C20.2205 9.07709 20.2024 8.89577 20.1677 8.72036C20.15 8.6307 20.128 8.54258 20.1019 8.45624C20.096 8.43671 20.0899 8.41727 20.0836 8.39793C19.9847 8.09489 19.8352 7.81471 19.6451 7.56738C19.1984 7.57982 19.0169 7.88075 18.9435 8.10667Z" fill="white"/>
<path fill-rule="evenodd" clip-rule="evenodd" d="M4.60938 17.2247C4.60938 18.7624 5.85588 20.0089 7.39353 20.0089H15.05C16.5876 20.0089 17.8341 18.7624 17.8341 17.2247V6.78415C17.8341 5.24651 16.5876 4 15.05 4H7.39353C5.85588 4 4.60938 5.24651 4.60938 6.78415V17.2247ZM8.77785 8.17637L8.77891 8.17977L8.77975 8.18145L8.78212 8.18298L8.78552 8.18404L8.78915 8.18298L8.79123 8.18186L8.79236 8.17977L8.79342 8.17637L8.79236 8.17274C8.79153 8.17078 8.79123 8.17065 8.79123 8.17065C8.79123 8.17065 8.79111 8.17036 8.78915 8.16953L8.78575 8.16847L8.78212 8.16953L8.78003 8.17066L8.77891 8.17274L8.77785 8.17637ZM8.78563 9.56833C9.55445 9.56833 10.1777 8.94508 10.1777 8.17626C10.1777 7.40743 9.55445 6.78418 8.78563 6.78418C8.01681 6.78418 7.39355 7.40743 7.39355 8.17626C7.39355 8.94508 8.01681 9.56833 8.78563 9.56833ZM11.2207 8.17559C11.2207 7.78899 11.5341 7.47559 11.9207 7.47559L13.6589 7.47559C14.0455 7.47559 14.3589 7.78899 14.3589 8.17559C14.3589 8.56218 14.0455 8.87559 13.6589 8.87559H11.9207C11.5341 8.87559 11.2207 8.56219 11.2207 8.17559ZM7.39063 11.6561C7.39063 11.2695 7.70403 10.9561 8.09063 10.9561H13.6589C14.0455 10.9561 14.3589 11.2695 14.3589 11.6561C14.3589 12.0427 14.0455 12.3561 13.6589 12.3561H8.09063C7.70403 12.3561 7.39063 12.0427 7.39063 11.6561ZM8.09063 13.7402C7.70403 13.7402 7.39063 14.0536 7.39063 14.4402C7.39063 14.8268 7.70403 15.1402 8.09063 15.1402H12.2669C12.6535 15.1402 12.9669 14.8268 12.9669 14.4402C12.9669 14.0536 12.6535 13.7402 12.2669 13.7402H8.09063Z" fill="white"/>
</svg>
