<svg width="24" height="24" viewBox="0 0 24 24" fill="none" xmlns="http://www.w3.org/2000/svg">
<path d="M5.03775 8.08923C4.79311 7.84459 4.38065 7.9176 4.27019 8.24546C3.52137 10.4679 4.065 13.063 5.88204 14.8801C7.63731 16.6353 10.1187 17.2023 12.2888 16.5638C12.635 16.4619 13.0165 16.5341 13.2717 16.7893L16.3813 19.8989C17.0843 20.6018 18.224 20.6018 18.9269 19.8989L19.8599 18.966C20.5628 18.263 20.5628 17.1233 19.8599 16.4204L16.686 13.2465C16.4375 12.998 16.3621 12.629 16.4526 12.2894C17.0207 10.1567 16.4398 7.75032 14.7258 6.03633C12.9599 4.27047 10.4591 3.7073 8.27978 4.36429C7.94266 4.46592 7.86165 4.88605 8.11063 5.13503L11.2454 8.26979C11.6359 8.66031 11.6359 9.29348 11.2454 9.684L9.64606 11.2833C9.25554 11.6739 8.62237 11.6739 8.23185 11.2833L5.03775 8.08923Z" fill="white"/>
</svg>
