<svg width="24" height="24" viewBox="0 0 24 24" fill="none" xmlns="http://www.w3.org/2000/svg">
<path fill-rule="evenodd" clip-rule="evenodd" d="M12.9156 3.64507C12.3231 3.58079 11.7129 3.57823 11.0918 3.64358C10.5128 3.70449 10.0698 4.12526 9.91666 4.64498L9.76321 5.16559C9.72338 5.30072 9.60997 5.42913 9.43573 5.50383C9.37276 5.53083 9.31006 5.55894 9.24769 5.58811C9.07117 5.67067 8.89212 5.6642 8.76192 5.59328L8.35502 5.37164C7.87138 5.1082 7.25201 5.13049 6.79898 5.50644C6.33055 5.89516 5.89462 6.33112 5.50594 6.79958C5.13006 7.25261 5.1078 7.87193 5.37122 8.35553L5.5931 8.76288C5.66401 8.89305 5.6705 9.07204 5.58799 9.24855C5.55894 9.3107 5.53094 9.37318 5.50405 9.43593C5.42936 9.6102 5.30093 9.72364 5.16578 9.76347L4.64494 9.91699C4.12518 10.0702 3.7044 10.5132 3.64352 11.0923C3.57821 11.7134 3.58081 12.3237 3.64516 12.9163C3.70779 13.4931 4.1284 13.9312 4.64403 14.0832L5.16062 14.2354C5.29855 14.2761 5.4262 14.3917 5.4947 14.5652C5.52399 14.6393 5.5545 14.7129 5.58622 14.7858C5.66067 14.9569 5.65221 15.129 5.58337 15.2554L5.3262 15.7275C5.06906 16.1996 5.08151 16.8066 5.44466 17.2588C5.82844 17.7365 6.26335 18.1715 6.74112 18.5553C7.19323 18.9185 7.80029 18.9309 8.2724 18.6738L8.74436 18.4167C8.87076 18.3479 9.04289 18.3394 9.214 18.4139C9.28698 18.4456 9.36061 18.4762 9.43487 18.5055C9.60837 18.574 9.72396 18.7016 9.76461 18.8396L9.91686 19.3561C10.0688 19.8717 10.5069 20.2923 11.0837 20.355C11.6762 20.4193 12.2864 20.4219 12.9076 20.3567C13.4867 20.2958 13.9297 19.875 14.0829 19.3552L14.2295 18.8578C14.2706 18.7184 14.3883 18.5895 14.565 18.5214C14.6461 18.4902 14.7264 18.4575 14.806 18.4234C14.9772 18.3499 15.1486 18.3587 15.2744 18.4272L15.7567 18.6899C16.2278 18.9465 16.834 18.935 17.286 18.5725C17.7602 18.1922 18.1917 17.7608 18.572 17.2866C18.9345 16.8345 18.9461 16.2283 18.6895 15.7572L18.427 15.2754C18.3585 15.1496 18.3497 14.9781 18.4233 14.8069C18.4575 14.7271 18.4904 14.6465 18.5217 14.5652C18.5897 14.3886 18.7186 14.2709 18.858 14.2298L19.3552 14.0832C19.875 13.93 20.2958 13.487 20.3566 12.9079C20.4219 12.2869 20.4193 11.6768 20.3551 11.0844C20.2925 10.5076 19.8718 10.0695 19.3562 9.91746L18.8407 9.76552C18.7027 9.72485 18.575 9.60922 18.5065 9.43566C18.477 9.36082 18.4462 9.28661 18.4142 9.21305C18.3397 9.04193 18.3482 8.86979 18.417 8.74338L18.6737 8.27224C18.9308 7.80012 18.9184 7.19304 18.5551 6.74093C18.1714 6.2633 17.7366 5.8285 17.259 5.44481C16.8068 5.08163 16.1998 5.06917 15.7277 5.32632L15.2564 5.58303C15.13 5.65188 14.9579 5.66033 14.7868 5.58587C14.7133 5.5539 14.6391 5.52314 14.5644 5.49364C14.3908 5.42516 14.2752 5.29748 14.2345 5.15952L14.0826 4.64396C13.9306 4.12828 13.4924 3.70765 12.9156 3.64507ZM11.3223 9.0219C13.529 8.55221 15.4406 10.4631 14.9711 12.6705C14.7264 13.8208 13.8207 14.7265 12.6704 14.9711C10.4631 15.4405 8.55234 13.5292 9.02185 11.3224C9.12604 10.8328 9.43493 10.3084 9.87159 9.87171C10.3083 9.43502 10.8326 9.12611 11.3223 9.0219Z" fill="white"/>
</svg>
