<svg width="24" height="24" viewBox="0 0 24 24" fill="none" xmlns="http://www.w3.org/2000/svg">
<path fill-rule="evenodd" clip-rule="evenodd" d="M12.7873 4.00195H8.12572C7.42778 4.00195 6.75843 4.2829 6.26492 4.783C5.7714 5.28309 5.49414 5.96137 5.49414 6.66862V17.3353C5.49414 18.0425 5.7714 18.7208 6.26492 19.2209C6.75843 19.721 7.42778 20.0019 8.12572 20.0019H10.5644C10.4977 19.8153 10.4834 19.605 10.5399 19.3893L10.8422 18.2358L11.1142 17.3024C11.147 17.1771 11.3586 16.7545 11.4501 16.6629L12.7779 15.3083L16.9267 11.161C17.3518 10.736 17.9493 10.5884 18.4941 10.7182V9.75005H14.6383C14.1483 9.75005 13.6777 9.55618 13.3304 9.21018C12.9829 8.86409 12.7873 8.39412 12.7873 7.90355V4.00195ZM8.23803 11.7541C8.23803 11.3675 8.55143 11.0541 8.93803 11.0541H13.2818C13.6684 11.0541 13.9818 11.3675 13.9818 11.7541C13.9818 12.1407 13.6684 12.4541 13.2818 12.4541H8.93803C8.55143 12.4541 8.23803 12.1407 8.23803 11.7541ZM8.93803 14.0541C8.55143 14.0541 8.23803 14.3675 8.23803 14.7541C8.23803 15.1407 8.55143 15.4541 8.93803 15.4541H10.5845C10.9711 15.4541 11.2845 15.1407 11.2845 14.7541C11.2845 14.3675 10.9711 14.0541 10.5845 14.0541H8.93803Z" fill="white"/>
<path d="M18.4081 8.35005C18.378 8.23392 18.3402 8.11973 18.2948 8.00828C18.1623 7.68335 17.9677 7.38818 17.7222 7.13973L15.3977 4.78417C15.1525 4.53542 14.8612 4.33825 14.5405 4.204C14.4254 4.15582 14.3074 4.11609 14.1873 4.08499V7.90355C14.1873 8.02111 14.2342 8.13439 14.3184 8.21831C14.4028 8.30233 14.5178 8.35005 14.6383 8.35005H18.4081Z" fill="white"/>
<path d="M12.5923 19.2111L12.9242 17.9447C13.0141 17.6013 13.1939 17.2881 13.4449 17.0372L17.6376 12.8461C17.9891 12.4948 18.5589 12.4948 18.9103 12.8463L19.3254 13.2614C19.6769 13.6129 19.6768 14.1828 19.3253 14.5342L15.138 18.7207C14.8882 18.9704 14.5767 19.1496 14.2352 19.2399L12.9592 19.5772C12.7371 19.6359 12.5341 19.4334 12.5923 19.2111Z" fill="white"/>
</svg>
