<svg width="24" height="24" viewBox="0 0 24 24" fill="none" xmlns="http://www.w3.org/2000/svg">
<path d="M14.5317 4.95703L13.1797 6.30678L16.7519 9.85079L18.0878 8.51589C18.674 7.93018 18.6742 6.98016 18.0883 6.39421L16.6521 4.95794C16.0667 4.37245 15.1176 4.37204 14.5317 4.95703Z" fill="white"/>
<path d="M5.10769 14.9626L4.44296 17.4993C4.28764 18.092 4.82897 18.6321 5.42131 18.4755L8.49775 17.6621C8.66848 17.617 8.8242 17.5275 8.94909 17.4026L15.6141 10.7406L12.1843 7.31055L5.88917 13.601C5.51243 13.9775 5.2427 14.4474 5.10769 14.9626Z" fill="white"/>
<path fill-rule="evenodd" clip-rule="evenodd" d="M19.5718 14.9234C19.1986 14.5952 18.6299 14.6316 18.3017 15.0048C17.9734 15.3781 18.0098 15.9467 18.383 16.275C18.706 16.5591 18.8992 16.8958 18.9693 17.1852C19.0388 17.472 18.9806 17.6556 18.8987 17.7611C18.8185 17.8645 18.5925 18.0509 17.9996 18.0817C17.3999 18.1128 16.5023 17.9752 15.2435 17.4982C14.0889 17.0606 13.2391 16.8036 12.6162 16.7007C12.3048 16.6493 12.0041 16.6282 11.7275 16.6646C11.4447 16.7018 11.1296 16.8079 10.8772 17.0612C10.6216 17.3177 10.5315 17.6236 10.5042 17.861C10.4784 18.0857 10.5027 18.2989 10.5248 18.4478C10.5272 18.4642 10.5299 18.4815 10.5328 18.4994C10.3418 18.4476 10.1063 18.3699 9.82726 18.2609C9.36426 18.0801 8.84234 18.3088 8.66152 18.7718C8.48069 19.2348 8.70944 19.7567 9.17244 19.9376C9.78143 20.1754 10.4057 20.3639 10.9238 20.382C11.1756 20.3908 11.5357 20.3658 11.8589 20.1595C12.2512 19.9091 12.4252 19.5021 12.4252 19.0992C12.4252 18.8954 12.3962 18.7018 12.3712 18.5563L12.3583 18.4827C12.8028 18.5606 13.5096 18.766 14.6056 19.1814C15.9981 19.7091 17.1562 19.9279 18.0929 19.8792C19.0363 19.8303 19.8273 19.5007 20.321 18.8644C20.813 18.2301 20.8855 17.45 20.7188 16.7615C20.5527 16.0757 20.1427 15.4256 19.5718 14.9234ZM11.0296 18.5829C11.0352 18.5825 11.0376 18.5819 11.0376 18.5819L11.036 18.582C11.036 18.582 11.0325 18.5824 11.0296 18.5829Z" fill="white"/>
</svg>
