<svg width="24" height="24" viewBox="0 0 24 24" fill="none" xmlns="http://www.w3.org/2000/svg">
<path fill-rule="evenodd" clip-rule="evenodd" d="M13.1205 6.02252C13.4778 7.35618 12.6864 8.72703 11.3527 9.08438C10.0191 9.44173 8.64821 8.65028 8.29086 7.31661C7.9335 5.98295 8.72496 4.61211 10.0586 4.25475C11.3923 3.8974 12.7631 4.68885 13.1205 6.02252Z" fill="white"/>
<path fill-rule="evenodd" clip-rule="evenodd" d="M10.1371 16.1397C10.4944 17.4734 9.70299 18.8442 8.36932 19.2016C7.03566 19.5589 5.66481 18.7675 5.30746 17.4338C4.95011 16.1001 5.74156 14.7293 7.07523 14.3719C8.40889 14.0146 9.77973 14.806 10.1371 16.1397Z" fill="white"/>
<path fill-rule="evenodd" clip-rule="evenodd" d="M18.9953 16.3549C20.329 15.9975 21.1204 14.6267 20.7631 13.293C20.4057 11.9594 19.0349 11.1679 17.7012 11.5253C16.3675 11.8826 15.5761 13.2535 15.9334 14.5871C16.2908 15.9208 17.6616 16.7122 18.9953 16.3549Z" fill="white"/>
<path d="M5.28421 13.8155C4.5933 11.237 5.41755 8.60948 7.21118 6.8782C7.22523 7.10953 7.2626 7.34289 7.32491 7.57545C7.427 7.95645 7.58817 8.30584 7.79592 8.61641C6.78057 9.92558 6.36781 11.6776 6.82969 13.4014L6.81656 13.4057C6.26879 13.5525 5.78636 13.8214 5.3907 14.1752C5.3523 14.0569 5.31677 13.937 5.28421 13.8155Z" fill="white"/>
<path d="M14.0864 5.76372C14.1886 6.14502 14.2237 6.52849 14.1989 6.90161C15.7322 7.52792 16.9651 8.83861 17.4269 10.5619L17.4417 10.5587C17.989 10.412 18.5407 10.4036 19.0599 10.5119C19.034 10.3905 19.0049 10.2691 18.9724 10.1478C18.2816 7.56989 16.2549 5.70679 13.8367 5.10381C13.94 5.31095 14.0242 5.53146 14.0864 5.76372Z" fill="white"/>
<path d="M13.548 17.2802C14.3502 17.0653 15.063 16.6832 15.659 16.1815C16.0146 16.6074 16.4655 16.9406 16.9698 17.157C16.1469 17.9281 15.1276 18.5134 13.9621 18.8257C12.797 19.1379 11.6219 19.1407 10.524 18.8846C10.8527 18.4451 11.0767 17.931 11.1718 17.3844C11.9384 17.5207 12.7463 17.495 13.548 17.2802Z" fill="white"/>
</svg>
