<svg width="24" height="24" viewBox="0 0 24 24" fill="none" xmlns="http://www.w3.org/2000/svg">
<g opacity="0.72">
<path fill-rule="evenodd" clip-rule="evenodd" d="M18.7599 15.3804C18.4899 15.2004 18.1099 14.9204 17.8099 14.6204C17.6599 14.4704 17.5399 14.3304 17.4599 14.2104C17.3899 14.1004 17.3799 14.0404 17.3799 14.0304V10.0104C17.3799 8.18039 16.0199 5.65039 13.3099 5.02039V4.96039C13.3099 4.24039 12.7299 3.65039 11.9999 3.65039C11.2699 3.65039 10.6899 4.23039 10.6899 4.96039V4.99039C7.94986 5.60039 6.56986 8.16039 6.56986 10.0104V14.0304C6.56986 14.0304 6.55986 14.0904 6.48986 14.2104C6.40986 14.3304 6.28986 14.4704 6.13986 14.6204C5.82986 14.9204 5.44986 15.2004 5.18986 15.3804C4.83986 15.6204 4.60986 16.0104 4.60986 16.4604C4.60986 17.1604 5.17986 17.7304 5.87986 17.7304H18.0499C18.7499 17.7304 19.3199 17.1604 19.3199 16.4604C19.3199 16.0204 19.0899 15.6204 18.7499 15.3804H18.7599ZM18.0799 16.5204H5.88986C5.88986 16.5204 5.81986 16.4904 5.81986 16.4504C5.81986 16.4304 5.82986 16.3904 5.86986 16.3604C6.15986 16.1604 6.59986 15.8404 6.97986 15.4704C7.16986 15.2904 7.35986 15.0704 7.49986 14.8504C7.63986 14.6304 7.77986 14.3504 7.77986 14.0204V10.0004C7.77986 8.57039 8.91986 6.50039 11.1399 6.11039H11.1699C11.1699 6.11039 11.1999 6.11039 11.2199 6.10039C11.2416 6.10039 11.2722 6.09448 11.3085 6.08748C11.3389 6.0816 11.3733 6.07495 11.4099 6.07039C11.5699 6.05039 11.7799 6.03039 11.9799 6.03039C12.1799 6.03039 12.3899 6.05039 12.5499 6.07039C12.6299 6.08039 12.6999 6.09039 12.7399 6.10039H12.8199C15.0499 6.49039 16.1899 8.56039 16.1899 10.0004V14.0204C16.1899 14.3404 16.3299 14.6304 16.4699 14.8504C16.6199 15.0804 16.7999 15.2904 16.9899 15.4704C17.3699 15.8404 17.8099 16.1604 18.0999 16.3604C18.1399 16.3904 18.1499 16.4204 18.1499 16.4504C18.1499 16.4904 18.1199 16.5204 18.0799 16.5204ZM14.3395 18.3998C14.0595 18.2198 13.6895 18.2998 13.5095 18.5798C13.3795 18.7898 13.1695 18.9698 12.9095 19.0998C12.6395 19.2298 12.3395 19.3098 12.0195 19.3098C11.6995 19.3098 11.3895 19.2398 11.1295 19.0998C10.8595 18.9698 10.6595 18.7798 10.5295 18.5798C10.3495 18.2998 9.97945 18.2198 9.69945 18.3998C9.41945 18.5798 9.33945 18.9498 9.51945 19.2298C9.77945 19.6298 10.1495 19.9498 10.5895 20.1698C11.0295 20.3898 11.5195 20.4998 12.0195 20.4998C12.5195 20.4998 13.0095 20.3898 13.4495 20.1698C13.8895 19.9498 14.2595 19.6298 14.5195 19.2298C14.6995 18.9498 14.6195 18.5798 14.3395 18.3998Z" fill="white"/>
</g>
</svg>
