<svg width="20" height="20" viewBox="0 0 20 20" fill="none" xmlns="http://www.w3.org/2000/svg">
<g id="icon zone">
<path id="icon shape fx" fill-rule="evenodd" clip-rule="evenodd" d="M9.99983 15.8334C9.67766 15.8334 9.41649 15.5722 9.41649 15.2501V10.5833H4.74999C4.42782 10.5833 4.16666 10.3221 4.16666 9.99992C4.16666 9.67775 4.42782 9.41658 4.74999 9.41658H9.41649V4.75008C9.41649 4.42791 9.67766 4.16675 9.99983 4.16675C10.322 4.16675 10.5832 4.42791 10.5832 4.75008V9.41658H15.25C15.5722 9.41658 15.8333 9.67775 15.8333 9.99992C15.8333 10.3221 15.5722 10.5833 15.25 10.5833H10.5832V15.2501C10.5832 15.5722 10.322 15.8334 9.99983 15.8334Z" fill="#0075FF"/>
</g>
</svg>
